<?xml version="1.0" standalone="no"?>
<!DOCTYPE svg PUBLIC "-//W3C//DTD SVG 20010904//EN"
 "http://www.w3.org/TR/2001/REC-SVG-20010904/DTD/svg10.dtd">
<svg version="1.0" xmlns="http://www.w3.org/2000/svg"
 width="496.000000pt" height="496.000000pt" viewBox="0 0 496.000000 496.000000"
 preserveAspectRatio="xMidYMid meet">

<g transform="translate(0.000000,496.000000) scale(0.100000,-0.100000)"
fill="#000000" stroke="none">
<path d="M4 4623 c3 -186 5 -351 6 -368 1 -66 1 -81 -1 -95 -1 -8 -3 -458 -5
-1000 -2 -634 0 -980 6 -970 8 12 10 11 10 -7 0 -12 -5 -25 -10 -28 -7 -4 -10
-375 -10 -1081 l0 -1074 2480 0 2480 0 0 614 c-1 595 -1 614 -20 619 -10 3
-21 -1 -24 -8 -4 -10 -14 -11 -43 -3 -21 5 -57 13 -81 18 -24 6 -66 21 -94 35
-54 27 -93 35 -43 9 17 -9 44 -23 60 -32 17 -9 33 -16 37 -17 3 0 10 -3 14 -7
4 -4 -9 -7 -28 -6 -19 1 -41 -3 -48 -7 -10 -6 -12 -4 -7 9 4 10 3 15 -3 11 -6
-3 -10 -1 -10 4 0 6 -7 11 -15 11 -8 0 -15 -5 -15 -11 0 -5 5 -7 10 -4 6 3 13
-2 17 -12 4 -10 11 -21 17 -25 8 -5 7 -8 -1 -8 -7 0 -16 6 -20 12 -4 7 -17 18
-27 24 -29 15 -44 45 -28 51 15 6 3 14 -78 55 -25 12 -53 30 -63 39 -10 9 -39
25 -65 34 -26 10 -57 26 -69 35 -13 10 -38 21 -57 24 -21 4 -46 20 -63 38 -15
17 -57 61 -93 97 -59 60 -63 66 -42 69 23 3 23 4 7 29 -10 14 -13 23 -7 19 5
-3 16 1 23 10 10 13 25 15 74 10 33 -3 99 -8 146 -11 100 -6 172 -23 254 -60
32 -14 66 -25 76 -25 10 0 20 -4 23 -9 3 -5 29 -15 58 -22 37 -8 47 -14 34
-19 -16 -5 -15 -7 7 -17 14 -7 27 -9 30 -5 2 4 3 2 1 -4 -3 -15 24 -54 37 -54
6 0 7 5 3 12 -4 7 -3 8 4 4 7 -4 12 -14 12 -22 0 -8 3 -14 8 -14 4 0 7 -11 7
-25 0 -17 -7 -26 -23 -30 -13 -3 -20 -10 -17 -15 11 -17 -14 -11 -78 19 -34
16 -71 39 -81 50 -11 12 -24 21 -29 21 -14 0 62 -66 93 -81 50 -24 66 -28 112
-33 25 -2 55 -9 67 -15 11 -6 24 -11 30 -11 8 0 11 530 11 1795 l0 1795 -408
0 -407 0 -35 -42 c-37 -45 -38 -49 -55 -273 -23 -303 -48 -507 -70 -572 -8
-24 -15 -70 -15 -103 0 -75 -14 -90 -82 -90 l-51 0 6 258 c5 222 17 365 41
477 3 11 5 26 5 32 1 7 4 12 9 10 4 -1 7 1 7 4 0 4 9 17 20 29 16 18 17 23 5
30 -25 16 -35 12 -129 -50 -50 -33 -91 -57 -91 -55 0 3 -17 -3 -37 -14 -21
-10 -52 -22 -70 -25 -17 -4 -34 -14 -37 -22 -3 -9 -10 -13 -14 -10 -5 3 -38
-4 -73 -15 -35 -11 -98 -22 -139 -24 l-75 -3 4 -89 c3 -85 -10 -161 -32 -190
-6 -9 -5 -18 3 -29 11 -13 10 -16 -8 -21 -27 -7 -85 -122 -71 -139 6 -8 5 -14
-4 -17 -8 -3 -14 -20 -15 -37 -1 -41 -3 -42 -35 -25 -25 13 -27 12 -27 -7 0
-20 -1 -20 -18 -5 -10 10 -22 14 -25 10 -4 -3 -7 -1 -7 5 0 7 -7 12 -15 12 -8
0 -15 9 -15 20 0 14 5 18 17 13 13 -5 15 -2 10 11 -4 9 -3 15 2 11 5 -3 12 -1
15 4 8 12 -18 113 -27 105 -4 -4 -7 -2 -7 5 0 7 -9 3 -20 -10 l-19 -24 -1 34
c0 61 -31 128 -52 115 -4 -3 -8 0 -8 5 0 13 20 14 36 3 6 -4 15 -21 18 -39 5
-22 12 -30 22 -26 19 7 18 23 -1 23 -9 0 -15 9 -15 24 0 14 -4 27 -9 30 -4 3
-6 27 -4 53 3 35 1 44 -6 33 -9 -12 -11 -10 -11 10 -1 26 -30 75 -30 50 0 -9
-5 -8 -20 5 -10 9 -19 20 -18 24 2 20 -4 22 -18 5 -14 -18 -15 -18 -11 12 2
25 0 31 -12 29 -9 -2 -16 -4 -16 -5 0 -1 -10 -3 -23 -4 -16 -2 -24 4 -28 21
-4 16 -12 22 -21 19 -8 -4 -11 -1 -8 5 4 6 1 9 -6 8 -8 -1 -25 3 -39 9 -14 6
-21 11 -16 11 18 2 -17 30 -45 36 -35 8 -39 35 -5 35 13 0 26 6 29 14 8 21 -4
28 -22 13 -14 -11 -14 -10 -2 5 9 12 21 16 37 12 19 -5 24 -2 24 12 1 17 2 17
10 2 10 -16 50 -14 50 3 0 13 -14 11 -29 -3 -11 -11 -12 -10 -5 2 13 23 12 50
-2 50 -6 0 -15 7 -18 16 -8 21 -8 24 5 24 5 0 7 -5 4 -10 -10 -16 23 -24 40
-10 10 8 12 17 6 24 -7 8 -4 12 10 14 10 1 25 2 32 3 6 2 12 15 13 30 1 31
-13 29 -25 -3 -6 -17 -9 -15 -18 17 -9 27 -9 35 0 32 7 -2 11 -13 9 -23 -2
-14 1 -13 12 6 8 14 17 24 20 23 20 -9 23 0 6 17 -18 18 -24 33 -21 52 0 4
-285 7 -634 7 -416 1 -635 -2 -635 -9 0 -6 5 -10 11 -10 17 0 39 -27 34 -42
-3 -7 5 -18 17 -23 16 -7 23 -18 22 -35 -1 -24 11 -40 31 -40 6 0 3 5 -5 10
-13 8 -12 10 3 10 9 0 17 -7 17 -16 0 -10 6 -14 15 -10 8 3 15 1 15 -4 0 -6
-6 -10 -12 -10 -24 0 30 -42 56 -43 16 -1 24 -7 22 -14 -3 -6 2 -17 10 -23 8
-7 14 -9 14 -4 0 4 5 3 12 -4 7 -7 20 -12 30 -12 12 0 15 -5 11 -17 -4 -10 -2
-14 4 -10 6 4 18 0 26 -8 20 -19 28 -19 21 0 -8 21 6 19 22 -2 7 -10 18 -18
25 -18 7 0 16 -11 20 -25 4 -14 7 -19 8 -12 2 18 18 14 23 -6 3 -10 -1 -27 -8
-37 -12 -15 -11 -20 4 -32 16 -14 16 -14 -1 -9 -10 3 -21 6 -23 6 -2 0 -2 11
2 24 4 17 1 25 -13 30 -14 6 -16 5 -5 -5 13 -14 17 -33 4 -25 -4 2 -9 -5 -9
-17 -1 -12 -5 -32 -8 -45 -6 -23 -5 -23 22 -6 26 16 27 16 12 1 -8 -10 -25
-19 -37 -22 -36 -7 -43 -14 -32 -34 5 -10 6 -21 3 -25 -15 -15 -22 -3 -21 40
0 28 4 41 9 33 4 -7 11 -11 14 -8 7 8 10 77 3 84 -13 13 -38 -9 -38 -34 -1
-16 -10 -33 -24 -43 l-24 -17 18 37 c21 42 18 55 -6 26 -8 -10 -13 -13 -9 -6
4 7 1 28 -5 46 -10 32 -13 34 -40 26 -24 -7 -28 -6 -23 7 5 13 2 13 -14 5 -11
-6 -23 -9 -26 -6 -3 3 -4 -6 -3 -20 2 -15 -1 -29 -7 -33 -6 -3 -7 -1 -3 5 3 6
2 13 -4 17 -5 3 -10 2 -10 -4 0 -13 -22 -8 -54 12 -30 20 -46 15 -46 -13 0
-10 -4 -22 -10 -25 -5 -3 -10 -1 -10 5 0 8 -9 10 -25 6 -19 -5 -25 -2 -25 10
0 25 -35 12 -38 -15 -6 -40 7 -68 38 -81 34 -14 45 -26 55 -59 5 -18 4 -22 -5
-16 -9 5 -11 4 -6 -3 4 -7 16 -12 27 -12 10 0 19 -5 19 -11 0 -5 -6 -7 -12 -3
-10 6 -10 4 0 -8 10 -13 10 -17 -2 -21 -8 -3 -12 -14 -10 -24 3 -11 -5 -28
-20 -42 -14 -14 -26 -19 -26 -12 0 7 -4 9 -10 6 -5 -3 -15 5 -21 19 -11 24
-49 33 -49 11 -1 -5 -7 4 -14 20 -12 29 -13 29 -20 8 -4 -13 -13 -20 -21 -17
-9 4 -12 0 -8 -14 3 -12 -3 -28 -15 -40 -18 -18 -21 -18 -27 -5 -4 12 -9 13
-16 6 -11 -11 -15 -8 -59 32 -6 6 -17 19 -25 30 -15 20 -15 20 -21 -2 -3 -13
-10 -21 -14 -18 -4 3 -10 -2 -13 -9 -3 -8 -1 -16 4 -18 6 -2 1 -14 -10 -27
-19 -21 -19 -26 -6 -51 14 -27 14 -29 -8 -32 -20 -3 -19 -6 22 -45 24 -24 47
-40 52 -37 11 6 12 -16 1 -33 -10 -15 -49 -19 -76 -8 -15 7 -17 5 -11 -6 4 -8
-11 6 -34 30 -23 24 -44 41 -47 39 -2 -3 2 -11 11 -18 8 -7 15 -17 15 -23 0
-6 -3 -7 -7 -4 -3 4 -12 2 -20 -4 -10 -9 -13 -4 -13 24 0 36 -40 91 -48 67 -3
-7 5 -18 17 -26 12 -9 21 -26 21 -40 0 -23 -1 -24 -16 -10 -8 9 -20 16 -25 16
-5 0 -15 11 -21 25 -6 14 -19 25 -30 25 -24 0 -23 -17 1 -25 11 -3 22 -13 25
-21 3 -8 2 -13 -3 -9 -16 9 -39 -6 -45 -30 -7 -28 10 -81 39 -119 l23 -29 -28
-29 c-24 -25 -28 -35 -23 -66 3 -20 15 -51 27 -69 17 -27 22 -29 27 -15 4 9 8
-7 11 -38 5 -63 -5 -92 -28 -83 -14 5 -15 1 -9 -25 7 -35 -7 -44 -24 -14 -10
16 -10 16 -11 -1 0 -10 -3 -16 -7 -14 -12 7 -54 -41 -43 -48 15 -9 12 -45 -3
-45 -7 0 -17 4 -23 10 -7 7 -49 14 -121 19 -7 1 -21 11 -33 23 -19 21 -20 21
-20 2 -1 -19 -1 -19 -16 1 -16 20 -16 20 -10 -2 9 -30 -22 -36 -51 -10 -28 25
-37 18 -24 -17 9 -21 8 -26 -5 -26 -10 0 -13 -6 -9 -19 6 -21 -20 -38 -29 -18
-3 9 -5 9 -5 0 -1 -6 4 -15 10 -19 8 -4 4 -13 -12 -25 -13 -10 -18 -19 -11
-19 6 0 12 -5 12 -11 0 -5 -4 -7 -10 -4 -5 3 -10 -1 -10 -9 0 -20 -20 -31 -30
-16 -13 21 -21 -6 -10 -36 13 -32 -1 -47 -34 -35 -12 5 -27 6 -33 4 -15 -5
-20 6 -27 62 -6 48 -16 86 -27 101 -5 6 -7 20 -4 33 2 12 0 19 -6 16 -8 -6
-14 44 -11 85 1 8 2 32 3 54 2 25 10 47 26 62 13 13 23 20 23 17 0 -3 7 0 15
7 10 9 15 9 15 1 0 -6 5 -11 12 -11 6 0 8 3 5 7 -11 10 13 33 35 33 10 0 16
-4 13 -10 -3 -5 3 -10 15 -10 14 0 19 4 14 13 -4 6 4 1 19 -12 30 -27 50 -21
38 12 -5 12 -4 29 1 37 11 18 -72 278 -99 309 -39 46 -73 9 -73 -79 0 -57 -13
-66 -81 -51 -24 5 -82 13 -129 16 -119 10 -160 21 -160 46 0 40 82 45 238 13
20 -4 22 -1 22 40 0 25 -5 48 -11 51 -5 4 -8 12 -6 18 7 19 -12 47 -32 47 -10
0 -38 23 -62 51 -124 143 -113 124 -99 177 7 26 16 50 20 55 10 12 70 -4 70
-19 0 -8 7 -14 15 -14 8 0 15 -3 15 -8 0 -4 10 -18 23 -32 13 -14 26 -33 30
-43 4 -10 11 -16 16 -13 5 4 11 0 14 -6 3 -7 6 10 6 37 2 88 8 156 15 162 3 4
6 -1 6 -10 0 -9 5 -17 10 -17 6 0 10 9 10 19 0 11 5 23 10 26 6 4 10 3 9 -2
-4 -20 2 -23 17 -8 10 9 20 13 23 8 9 -12 42 -13 34 0 -4 6 4 8 20 5 19 -4 24
-1 20 9 -3 8 -2 13 3 11 5 -2 9 -1 10 2 2 16 26 50 35 50 6 0 6 -7 -1 -20 -9
-16 -8 -20 5 -20 9 0 13 -4 10 -10 -4 -6 1 -7 11 -3 11 4 13 8 6 11 -20 6 -13
20 8 15 12 -3 20 0 20 6 0 7 5 9 12 5 6 -4 8 -3 5 3 -4 6 0 16 8 23 8 7 15 9
15 5 0 -4 6 -3 13 4 8 6 23 9 35 6 16 -3 19 0 15 12 -4 11 -2 14 5 9 6 -3 15
2 21 11 9 15 12 15 20 4 6 -9 11 -10 15 -2 4 6 11 9 16 6 5 -3 14 4 20 15 6
11 15 18 21 15 5 -4 7 -11 4 -16 -3 -5 1 -6 9 -3 9 3 14 10 11 15 -3 4 4 6 15
4 11 -2 20 0 20 5 0 4 8 7 18 6 22 -4 31 21 21 56 -4 15 -11 68 -14 117 -7 78
-11 92 -30 105 -18 12 -84 14 -361 16 l-339 1 1 -50 c2 -57 -6 -97 -23 -126
-9 -16 -15 -17 -37 -7 -33 15 -54 57 -62 126 -4 31 -11 56 -16 56 -5 0 -7
-137 -4 -337z m2706 317 c0 -5 -4 -10 -10 -10 -5 0 -10 5 -10 10 0 6 5 10 10
10 6 0 10 -4 10 -10z m60 1 c0 -6 -4 -13 -10 -16 -5 -3 -10 1 -10 9 0 9 5 16
10 16 6 0 10 -4 10 -9z m1428 -48 c3 -22 22 -33 22 -14 0 6 9 8 20 6 11 -2 20
0 20 6 0 5 5 9 11 9 5 0 7 -4 4 -10 -3 -5 -2 -10 4 -10 5 0 11 4 13 10 2 5 13
7 25 4 13 -4 20 -10 17 -15 -3 -5 0 -9 6 -9 6 0 8 -5 4 -12 -6 -10 -5 -10 8
-1 17 15 28 8 28 -19 0 -10 7 -18 15 -18 8 0 15 -7 15 -15 0 -9 6 -12 15 -9 8
4 15 1 15 -5 0 -6 -4 -11 -10 -11 -5 0 -10 -7 -10 -16 0 -8 5 -12 10 -9 6 3
10 -1 10 -9 0 -10 -6 -13 -17 -10 -15 5 -16 4 -3 -5 17 -12 41 -15 39 -3 -1 4
-1 14 0 22 1 12 3 12 10 2 4 -8 7 -24 5 -38 -1 -15 3 -24 12 -24 8 0 17 -7 20
-15 4 -8 13 -15 21 -15 8 0 13 -8 11 -17 -2 -10 2 -18 9 -18 6 0 15 -4 20 -9
5 -5 3 -6 -4 -2 -8 4 -13 1 -13 -8 0 -9 6 -15 12 -14 8 2 15 -13 19 -37 3 -22
7 -32 8 -22 0 9 5 17 10 17 11 0 3 -39 -12 -58 -6 -7 -16 -11 -24 -8 -8 3 -12
2 -9 -2 3 -5 -9 -16 -25 -26 -38 -23 -52 -57 -43 -112 8 -56 -2 -98 -21 -90
-12 4 -15 -4 -15 -35 0 -36 -2 -41 -20 -36 -11 3 -20 1 -20 -4 0 -5 -5 -9 -11
-9 -6 0 -18 -9 -28 -21 -10 -13 -30 -21 -51 -22 l-35 -2 -2 150 c-2 150 -18
337 -21 248 -1 -23 -11 -82 -23 -130 -11 -48 -23 -133 -27 -188 -8 -114 -7
-112 -114 -114 -68 -1 -66 -7 -44 134 16 102 23 185 36 437 9 173 14 199 48
239 22 26 56 21 60 -8z m-1515 -3 c-10 -11 -18 -20 -19 -20 -2 0 2 28 5 38 1
1 8 2 16 2 12 0 12 -3 -2 -20z m97 10 c12 -8 11 -10 -7 -10 -12 0 -25 5 -28
10 -8 13 15 13 35 0z m-40 -130 c0 -5 -5 -10 -11 -10 -5 0 -7 5 -4 10 3 6 8
10 11 10 2 0 4 -4 4 -10z m-70 -50 c0 -5 -2 -10 -4 -10 -3 0 -8 5 -11 10 -3 6
-1 10 4 10 6 0 11 -4 11 -10z m-2522 -29 c12 -6 22 -21 22 -33 0 -11 7 -26 16
-32 24 -18 23 -102 -1 -121 -25 -18 -85 -19 -111 -1 -16 13 -19 25 -16 93 2
60 6 81 20 90 9 7 22 16 27 21 6 5 12 6 15 2 3 -4 15 -12 28 -19z m487 -81 c3
-5 1 -10 -4 -10 -6 0 -11 5 -11 10 0 6 2 10 4 10 3 0 8 -4 11 -10z m1155 -64
c0 -8 -4 -18 -10 -21 -5 -3 -10 -11 -10 -16 0 -6 5 -7 10 -4 6 3 10 2 10 -4 0
-16 -18 -22 -23 -9 -4 9 -6 7 -6 -3 -1 -23 -27 -44 -36 -28 -4 6 4 22 19 35
14 14 26 34 26 44 0 11 5 20 10 20 6 0 10 -6 10 -14z m-1360 -48 c-13 -5 -25
-6 -29 -3 -9 10 21 24 37 17 12 -4 10 -7 -8 -14z m1687 -10 c-3 -7 -5 -2 -5
12 0 14 2 19 5 13 2 -7 2 -19 0 -25z m623 -19 c0 -6 -4 -7 -10 -4 -5 3 -10 11
-10 16 0 6 5 7 10 4 6 -3 10 -11 10 -16z m-642 4 c-1 -5 1 -21 5 -38 5 -22 1
-42 -17 -77 -13 -26 -26 -44 -29 -41 -3 3 -3 12 0 21 5 11 2 14 -9 10 -8 -4
-20 -3 -27 2 -14 8 4 53 43 102 20 26 38 37 34 21z m-543 -43 c3 -5 1 -10 -4
-10 -6 0 -11 5 -11 10 0 6 2 10 4 10 3 0 8 -4 11 -10z m435 -5 c-7 -9 -15 -13
-17 -11 -7 7 7 26 19 26 6 0 6 -6 -2 -15z m-181 -39 c-9 -8 -10 -7 -5 7 3 10
7 24 7 30 1 7 3 4 6 -7 3 -10 -1 -23 -8 -30z m-123 13 c19 -22 19 -22 -3 -8
-13 8 -23 17 -23 21 0 12 6 9 26 -13z m57 -22 c-9 -16 -26 12 -18 30 7 17 8
17 15 -2 4 -11 5 -24 3 -28z m54 8 c6 -15 7 -25 1 -25 -5 0 -6 -5 -2 -11 4 -7
1 -10 -7 -7 -8 3 -13 12 -11 22 2 9 -1 16 -6 16 -6 0 -12 7 -16 15 -10 26 28
17 41 -10z m670 10 c1 -5 -15 -11 -38 -13 -23 -1 -38 1 -35 7 3 5 16 7 29 4
18 -4 19 -3 7 7 -12 9 -11 10 9 8 14 -2 26 -7 28 -13z m-472 -4 c3 -5 0 -13
-6 -17 -7 -4 -9 -3 -5 4 3 6 -2 13 -11 15 -16 4 -16 5 -1 6 9 0 19 -3 23 -8z
m230 -1 c-3 -5 -14 -10 -23 -9 -14 0 -13 2 3 9 27 11 27 11 20 0z m301 -10
c15 -6 24 -13 21 -16 -8 -9 -67 6 -67 17 0 12 12 11 46 -1z m401 -32 c-3 -7
-5 -2 -5 12 0 14 2 19 5 13 2 -7 2 -19 0 -25z m-1049 3 c-7 -11 -16 -17 -20
-15 -4 3 -8 0 -8 -7 0 -7 -3 -9 -7 -6 -7 8 25 47 39 47 4 0 3 -9 -4 -19z
m1017 -11 c9 -17 13 -40 10 -50 -9 -29 -27 -24 -19 4 3 14 1 33 -6 43 -10 16
-11 16 -6 1 4 -13 0 -18 -14 -18 -11 0 -20 7 -20 16 0 8 4 13 9 10 5 -3 11 1
15 9 8 22 14 19 31 -15z m-137 0 c7 -11 11 -20 9 -20 -2 0 -12 9 -22 20 -10
11 -14 20 -9 20 5 0 15 -9 22 -20z m-1121 -37 c-3 -10 -5 -2 -5 17 0 19 2 27
5 18 2 -10 2 -26 0 -35z m141 35 c18 -18 14 -32 -5 -17 -11 10 -14 10 -9 2 4
-8 1 -13 -8 -13 -18 0 -19 2 -10 24 7 19 16 20 32 4z m823 -15 c13 -16 12 -17
-3 -4 -17 13 -22 21 -14 21 2 0 10 -8 17 -17z m-899 -45 c-6 -6 -7 0 -4 19 5
21 7 23 10 9 2 -10 0 -22 -6 -28z m957 -2 c-2 -2 -13 8 -23 22 l-19 27 24 -22
c12 -12 21 -24 18 -27z m-752 2 c-3 -8 -6 -5 -6 6 -1 11 2 17 5 13 3 -3 4 -12
1 -19z m-89 -17 c2 -6 17 -11 33 -11 16 0 29 -5 29 -10 0 -6 11 -16 25 -22 37
-17 30 -29 -8 -13 -22 9 -45 11 -75 5 -23 -4 -42 -3 -42 1 0 9 21 13 53 11 24
-2 21 7 -5 17 -15 6 -35 4 -55 -5 -18 -7 -35 -9 -38 -4 -13 22 -77 -17 -71
-43 2 -7 1 -8 -2 -3 -3 5 -10 0 -16 -11 -8 -15 -16 -18 -31 -12 -19 7 -18 8 3
8 14 1 22 6 20 13 -6 16 18 43 62 75 28 19 43 23 75 19 22 -2 41 -10 43 -15z
m1922 7 c0 -4 -7 -8 -15 -8 -8 0 -15 4 -15 8 0 5 7 9 15 9 8 0 15 -4 15 -9z
m30 -16 c-5 -2 -7 -9 -3 -15 4 -6 0 -8 -9 -5 -8 4 -15 1 -15 -7 0 -7 8 -10 18
-8 9 3 20 -1 25 -8 5 -9 2 -11 -9 -6 -9 3 -19 2 -22 -3 -4 -6 -1 -10 5 -10 6
0 8 -5 4 -12 -6 -10 -5 -10 7 -1 11 9 14 7 14 -13 0 -13 -3 -24 -6 -24 -5 0
-4 -41 1 -47 2 -2 4 -7 5 -13 1 -5 3 -11 4 -12 2 -2 4 -21 6 -43 7 -85 16
-141 25 -155 7 -12 43 -16 175 -20 113 -3 168 -9 173 -17 9 -15 77 -10 98 8
11 9 57 14 153 15 75 1 147 7 161 12 15 6 34 6 49 1 18 -7 22 -6 18 5 -3 9 2
16 15 19 16 5 19 2 15 -14 -6 -24 2 -24 19 -1 8 10 13 12 14 5 0 -15 36 -18
44 -4 4 5 -4 7 -16 5 -13 -2 -16 -1 -8 2 8 4 23 11 34 16 12 7 16 7 12 0 -3
-5 5 -12 19 -14 19 -4 26 0 32 19 l8 24 24 -25 c19 -20 21 -26 9 -26 -9 0 -19
6 -21 13 -4 9 -8 9 -15 -2 -7 -10 -6 -20 1 -33 14 -22 29 -24 21 -3 -4 10 0
15 14 15 11 0 27 3 36 6 9 3 16 2 16 -4 0 -6 -12 -15 -27 -20 -16 -6 -22 -11
-15 -11 9 -1 11 -8 7 -20 -3 -11 -1 -22 5 -26 5 -3 9 -16 9 -28 -1 -17 -2 -18
-6 -4 -4 16 -44 26 -42 10 4 -22 -2 -33 -13 -28 -7 4 -5 0 6 -9 10 -8 15 -19
11 -25 -3 -6 -1 -11 4 -11 18 0 12 -17 -7 -22 -19 -5 -28 -53 -12 -63 6 -3 10
-14 9 -23 0 -14 -2 -13 -9 3 -5 11 -9 14 -9 8 -1 -7 -10 -13 -20 -13 -24 0
-36 -16 -20 -26 8 -4 9 -3 5 4 -4 7 -2 12 3 12 15 0 14 -40 -1 -41 -7 0 -2 -5
12 -10 19 -8 21 -12 11 -18 -7 -5 -10 -14 -7 -20 4 -6 1 -11 -6 -11 -10 0 -10
-2 -1 -8 9 -6 7 -12 -7 -22 -11 -8 -20 -20 -20 -28 0 -7 -3 -11 -7 -9 -5 3
-14 -1 -21 -9 -7 -8 -10 -14 -7 -14 3 0 1 -9 -5 -20 -6 -12 -16 -17 -26 -13
-15 5 -15 3 0 -25 9 -17 16 -36 16 -42 0 -17 -18 -11 -25 9 -3 11 -12 21 -19
24 -16 6 -17 -23 -2 -42 9 -12 8 -13 -3 -6 -11 6 -13 3 -9 -13 5 -19 4 -20
-15 -10 -27 14 -38 29 -32 46 5 14 3 14 -19 6 -9 -3 -16 -17 -16 -30 0 -13 -5
-24 -11 -24 -5 0 -8 -4 -5 -8 2 -4 1 -14 -4 -21 -6 -11 -14 -8 -35 13 -20 20
-24 30 -16 40 8 10 8 16 -3 25 -19 16 -25 -2 -18 -49 3 -19 1 -32 -3 -28 -4 4
-14 0 -22 -10 -13 -16 -14 -16 -5 2 6 13 4 28 -7 50 -12 24 -16 27 -19 13 -2
-10 1 -23 6 -30 6 -8 5 -23 -4 -42 -7 -16 -13 -24 -14 -17 0 10 -8 8 -28 -7
-43 -30 -141 -71 -157 -65 -8 4 -15 2 -15 -4 0 -5 -20 -10 -45 -10 -30 -1 -43
2 -39 9 3 6 19 9 35 7 28 -4 29 -3 28 36 -1 38 -2 39 -11 15 -10 -24 -64 -65
-82 -60 -4 1 -14 -3 -21 -9 -9 -8 -15 -8 -20 0 -3 6 -10 8 -15 5 -5 -3 -12 0
-16 6 -5 8 -8 8 -14 -1 -4 -7 -7 0 -7 17 -1 61 -16 143 -30 154 -19 17 -30 2
-15 -21 7 -11 12 -30 12 -41 0 -19 -4 -18 -27 14 -33 42 -97 81 -123 74 -37
-9 -40 7 -15 68 36 88 30 101 -9 20 -18 -38 -42 -78 -53 -88 -26 -23 -192 -97
-218 -97 -11 0 -27 -5 -35 -10 -35 -23 91 5 190 42 119 45 160 46 213 5 19
-14 44 -47 58 -74 13 -26 28 -50 33 -52 4 -2 3 -6 -2 -10 -6 -4 -9 -17 -5 -29
5 -20 11 -22 78 -22 116 0 219 18 288 51 34 16 70 29 80 29 10 0 27 4 37 10
15 8 20 6 25 -11 4 -12 1 -28 -7 -37 -24 -30 -48 -79 -41 -86 3 -3 1 -6 -5 -6
-7 0 -12 -7 -12 -15 0 -9 -7 -18 -15 -21 -8 -4 -15 -13 -15 -21 0 -8 -8 -28
-17 -44 -14 -23 -23 -28 -52 -27 -20 1 -52 -2 -71 -6 -91 -20 -212 -3 -365 48
-79 27 -107 46 -179 118 -37 38 -79 73 -92 78 -18 7 -24 18 -25 42 -2 32 -2
32 -6 4 -4 -28 -5 -28 -51 -21 -26 5 -87 9 -136 11 l-89 2 -28 49 c-28 47 -36
75 -21 71 4 -1 25 2 47 6 22 3 72 12 110 18 39 6 76 16 83 21 6 5 12 7 12 4 0
-3 21 13 46 36 49 44 134 144 134 156 0 5 -8 18 -19 30 l-18 21 -13 -32 c-25
-68 -30 -78 -38 -78 -4 0 -7 38 -6 85 2 47 -1 83 -6 80 -5 -3 -11 -1 -15 5
-16 26 -23 4 -19 -61 4 -63 2 -70 -11 -59 -8 7 -15 21 -15 31 0 10 -13 34 -30
52 -16 19 -30 42 -30 51 0 9 -4 16 -10 16 -5 0 -10 14 -10 31 0 19 4 28 11 24
6 -4 8 -14 5 -22 -3 -8 -1 -11 5 -8 5 4 16 1 24 -5 27 -23 16 8 -12 36 -16 15
-23 24 -16 20 6 -3 3 11 -7 31 -13 27 -15 40 -7 45 6 4 15 4 19 2 4 -3 8 0 8
7 0 8 6 7 18 -4 66 -60 167 25 179 149 6 64 5 65 -27 94 -30 27 -31 30 -14 37
22 9 29 43 8 43 -7 0 -16 5 -20 12 -4 6 -3 8 3 5 5 -3 10 -1 10 6 0 7 -9 13
-19 13 -10 0 -18 -5 -18 -11 0 -6 -24 -12 -56 -13 -30 -1 -60 -3 -67 -5 -7 -1
-12 7 -12 18 0 18 8 20 63 23 34 2 62 7 62 13 0 6 7 6 19 -1 25 -13 31 -13 31
1 0 5 -4 7 -10 4 -15 -9 -12 4 5 21 13 14 15 13 15 -5 0 -26 12 -27 35 -1 18
19 17 20 -3 20 -12 0 -22 3 -22 8 0 4 23 7 50 7 28 0 46 -1 40 -3z m-2553 -39
c-3 -10 -5 -4 -5 12 0 17 2 24 5 18 2 -7 2 -21 0 -30z m2307 13 c-3 -9 -10
-13 -16 -10 -5 3 -4 12 3 20 15 18 22 13 13 -10z m-1971 -10 c-10 -13 -20 -22
-22 -20 -4 4 29 44 36 44 2 0 -4 -11 -14 -24z m42 -15 c3 -5 1 -12 -5 -16 -5
-3 -10 1 -10 9 0 18 6 21 15 7z m172 -13 c-3 -8 -6 -5 -6 6 -1 11 2 17 5 13 3
-3 4 -12 1 -19z m-307 8 c0 -3 -4 -8 -10 -11 -5 -3 -10 -1 -10 4 0 6 5 11 10
11 6 0 10 -2 10 -4z m74 -41 c-4 -10 0 -15 12 -15 18 -1 18 -1 1 -11 -9 -5
-21 -8 -26 -5 -11 7 -2 46 10 46 5 0 6 -7 3 -15z m41 5 c-3 -5 -12 -10 -18
-10 -7 0 -6 4 3 10 19 12 23 12 15 0z m1010 -28 c-3 -3 -11 0 -18 7 -9 10 -8
11 6 5 10 -3 15 -9 12 -12z m-960 -2 c-3 -5 -12 -7 -20 -3 -8 3 -15 0 -15 -6
0 -6 -4 -11 -10 -11 -5 0 -10 7 -10 15 0 10 10 15 31 15 17 0 28 -4 24 -10z
m-330 -10 c3 -5 1 -10 -4 -10 -6 0 -11 5 -11 10 0 6 2 10 4 10 3 0 8 -4 11
-10z m172 -22 c3 -17 1 -19 -11 -9 -8 7 -12 19 -9 27 7 18 16 10 20 -18z
m1457 9 c-3 -7 1 -4 9 6 14 16 15 16 22 -5 4 -13 7 -39 6 -59 -2 -21 3 -40 10
-44 7 -5 10 -4 6 2 -3 5 -2 23 3 39 7 26 8 24 9 -20 1 -39 -2 -47 -14 -42 -18
7 -20 -5 -2 -23 10 -11 9 -13 -6 -7 -10 3 -37 9 -60 12 -23 3 -60 13 -82 21
-22 9 -56 17 -75 18 -55 5 -56 5 -36 17 11 6 50 11 88 12 37 0 68 4 68 8 0 12
34 -4 48 -24 7 -10 18 -16 23 -13 16 10 10 37 -17 72 -14 18 -22 38 -19 43 9
14 27 2 19 -13z m-1697 -17 c-1 -11 -5 -20 -9 -20 -11 0 -20 19 -13 30 11 17
24 11 22 -10z m203 -2 c0 -18 -2 -20 -9 -8 -6 8 -7 18 -5 22 9 14 14 9 14 -14z
m138 -3 c-3 -3 -9 2 -12 12 -6 14 -5 15 5 6 7 -7 10 -15 7 -18z m452 9 c0 -8
-4 -12 -10 -9 -5 3 -10 10 -10 16 0 5 5 9 10 9 6 0 10 -7 10 -16z m535 -59
c-3 -26 -9 -45 -12 -42 -2 3 -1 26 2 52 4 25 10 44 12 41 3 -3 2 -26 -2 -51z
m42 23 c-3 -8 -6 -5 -6 6 -1 11 2 17 5 13 3 -3 4 -12 1 -19z m-567 -20 c0 -18
3 -43 6 -55 5 -17 2 -21 -12 -19 -24 4 -40 46 -16 46 10 0 13 3 6 8 -14 9 -24
38 -17 46 17 17 33 4 33 -26z m2422 8 c4 -6 8 -16 8 -23 0 -19 -46 -63 -66
-63 -11 0 -32 -7 -48 -15 -33 -17 -83 -20 -88 -4 -2 6 -1 34 2 62 5 48 7 52
35 59 41 9 148 -2 157 -16z m258 14 c0 -5 -10 -15 -22 -21 -23 -12 -23 -12 -4
10 21 23 26 26 26 11z m-2005 -10 c4 -6 -7 -10 -24 -10 -41 0 -44 -1 -56 -8
-6 -4 -2 1 8 11 21 19 62 23 72 7z m-975 -12 c-14 -5 -34 -14 -45 -20 -16 -7
-16 -5 4 12 13 11 33 20 45 19 19 0 19 -1 -4 -11z m2463 -49 c-2 -29 -7 -57
-13 -63 -5 -5 -44 -12 -85 -14 l-76 -4 7 54 c3 29 10 56 13 61 8 8 116 25 141
21 12 -1 14 -14 13 -55z m-3076 19 c-3 -8 -6 -5 -6 6 -1 11 2 17 5 13 3 -3 4
-12 1 -19z m263 -31 c-10 -10 -12 -9 -7 4 4 13 1 16 -16 11 l-22 -5 20 20 c20
20 20 20 29 1 6 -13 5 -22 -4 -31z m66 44 c-6 -9 -46 -22 -46 -15 0 3 10 9 23
14 29 11 29 11 23 1z m524 -5 c0 -2 -7 -7 -16 -10 -8 -3 -12 -2 -9 4 6 10 25
14 25 6z m683 -20 c7 3 3 -2 -7 -10 -25 -20 -32 -20 -40 0 -3 8 -2 12 4 9 6
-3 13 2 17 12 7 17 8 17 11 0 2 -9 9 -15 15 -11z m1954 2 c-3 -8 -6 -5 -6 6
-1 11 2 17 5 13 3 -3 4 -12 1 -19z m-2930 -21 c-12 -13 -24 -22 -26 -20 -6 4
30 43 40 43 5 0 -2 -10 -14 -23z m740 -9 c-3 -8 -6 -5 -6 6 -1 11 2 17 5 13 3
-3 4 -12 1 -19z m144 -47 c-22 -23 -47 -41 -55 -41 -8 0 -20 -8 -25 -17 -6
-10 -11 -14 -11 -9 0 4 -11 1 -25 -8 -14 -9 -25 -14 -25 -11 0 3 31 25 69 49
38 25 77 56 88 69 10 14 19 21 21 17 2 -4 -15 -27 -37 -49z m-652 19 c6 -18 6
-30 0 -30 -5 0 -9 6 -9 14 0 9 -7 12 -20 9 -24 -6 -25 0 -4 21 20 21 20 21 33
-14z m1088 8 c-3 -8 -6 -5 -6 6 -1 11 2 17 5 13 3 -3 4 -12 1 -19z m-1235 -10
c-7 -7 -12 -8 -12 -2 0 14 12 26 19 19 2 -3 -1 -11 -7 -17z m616 -10 c-12 -37
-28 -59 -28 -40 0 14 28 72 35 72 2 0 -1 -15 -7 -32z m667 -6 c-6 -6 -35 18
-35 29 0 5 9 1 20 -8 11 -9 17 -19 15 -21z m-2068 6 c-3 -8 -6 -5 -6 6 -1 11
2 17 5 13 3 -3 4 -12 1 -19z m2279 -2 c0 -13 -4 -22 -8 -19 -11 6 -10 43 1 43
5 0 8 -11 7 -24z m-1459 -23 c-3 -10 -5 -4 -5 12 0 17 2 24 5 18 2 -7 2 -21 0
-30z m1370 -5 c-3 -7 -5 -2 -5 12 0 14 2 19 5 13 2 -7 2 -19 0 -25z m47 17
c-4 -8 -11 -15 -16 -15 -6 0 -5 6 2 15 7 8 14 15 16 15 2 0 1 -7 -2 -15z
m1546 3 c0 -4 -6 -8 -14 -8 -8 0 -17 4 -20 8 -2 4 4 8 15 8 10 0 19 -4 19 -8z
m-1435 -8 c-3 -5 1 -10 9 -10 8 0 18 -5 21 -10 4 -6 -5 -10 -24 -8 -34 2 -37
8 -19 26 15 15 21 16 13 2z m-1245 -20 c6 -11 8 -20 6 -20 -3 0 -10 9 -16 20
-6 11 -8 20 -6 20 3 0 10 -9 16 -20z m960 -1 c0 -5 -4 -7 -10 -4 -5 3 -23 -1
-39 -10 -43 -22 -53 -18 -11 5 40 22 60 25 60 9z m-969 -61 c6 -11 6 -18 0
-18 -5 0 -14 14 -20 31 -14 40 -13 63 1 29 5 -14 14 -33 19 -42z m269 48 c0
-2 -8 -10 -17 -17 -16 -13 -17 -12 -4 4 13 16 21 21 21 13z m1109 -11 c8 -4
17 -2 22 6 5 9 12 10 18 4 7 -7 4 -18 -8 -33 l-17 -24 -42 22 c-23 12 -42 26
-42 30 0 10 52 6 69 -5z m-1099 -65 c0 -5 -5 -10 -11 -10 -5 0 -7 5 -4 10 3 6
8 10 11 10 2 0 4 -4 4 -10z m-573 -41 c7 -9 18 -31 23 -49 8 -28 7 -31 -8 -25
-16 6 -16 5 0 -11 16 -16 16 -18 0 -31 -9 -8 -11 -12 -4 -8 6 3 12 1 12 -4 0
-6 -12 -11 -27 -11 -19 0 -42 14 -75 47 -47 46 -62 83 -34 83 8 0 21 9 28 19
15 21 61 32 67 16 2 -5 10 -17 18 -26z m533 1 c-6 -11 -13 -20 -16 -20 -2 0 0
9 6 20 6 11 13 20 16 20 2 0 0 -9 -6 -20z m2565 1 c-3 -5 -1 -12 5 -16 13 -8
13 -25 -1 -25 -5 0 -8 4 -5 9 4 5 1 11 -6 13 -10 4 -4 28 8 28 3 0 3 -4 -1 -9z
m-3600 -90 c-3 -5 8 -18 25 -27 32 -19 37 -29 20 -39 -5 -3 -10 1 -10 9 0 9
-4 16 -10 16 -5 0 -10 -6 -10 -12 0 -10 -2 -10 -8 -1 -7 11 -25 16 -51 14 -9
-1 -11 -9 -8 -23 6 -22 6 -22 -14 2 -14 18 -17 20 -12 6 4 -13 3 -17 -5 -13
-6 4 -13 -1 -16 -10 -4 -15 -4 -14 -3 2 0 11 -5 31 -12 43 -15 28 -14 30 21
34 15 2 30 7 34 11 11 11 26 8 19 -3 -3 -6 1 -7 9 -4 9 3 15 9 14 12 -2 20 4
25 13 9 5 -9 8 -21 4 -26z m155 29 c0 -5 -5 -10 -11 -10 -5 0 -7 5 -4 10 3 6
8 10 11 10 2 0 4 -4 4 -10z m633 -7 c-4 -9 -2 -14 3 -10 6 3 16 1 24 -4 12 -8
12 -12 3 -16 -7 -2 -13 -12 -13 -21 0 -15 -2 -15 -11 -2 -9 12 -10 12 -5 -3
18 -55 17 -67 -3 -93 -12 -15 -21 -21 -21 -13 0 11 -2 11 -11 -1 -8 -11 -9 -3
-5 30 10 71 30 150 38 150 4 0 4 -7 1 -17z m-546 -13 c2 -23 37 -72 46 -63 3
3 9 -6 13 -21 3 -14 18 -32 33 -39 14 -7 25 -19 23 -26 -1 -7 2 -10 7 -7 18
12 23 -15 7 -39 -20 -30 -21 -41 -3 -26 8 6 18 7 22 3 5 -4 5 -2 1 5 -3 6 -2
14 3 17 9 6 26 -22 22 -37 -1 -5 3 -6 9 -2 5 3 10 1 10 -4 0 -14 -37 -14 -45
-1 -11 18 -33 -8 -29 -33 3 -17 1 -15 -8 6 -7 15 -16 27 -21 27 -4 0 -5 6 -1
13 5 7 0 6 -11 -3 -17 -13 -18 -13 -10 0 5 8 20 23 33 34 12 10 21 21 18 24
-3 3 -24 -13 -47 -36 -40 -42 -59 -52 -59 -31 0 5 -4 7 -10 4 -5 -3 -10 -1
-10 5 0 6 -6 8 -12 5 -7 -4 2 7 21 24 27 24 29 29 12 24 -13 -3 -21 -1 -21 6
0 7 5 9 10 6 6 -3 10 3 10 14 0 15 -5 19 -16 14 -14 -5 -15 -3 -5 15 10 19 9
21 -6 15 -17 -6 -17 -5 0 14 16 18 16 21 2 26 -8 4 -15 13 -15 22 0 8 -7 15
-16 15 -25 0 -12 33 16 41 14 4 25 7 25 8 1 1 1 -8 2 -19z m463 -24 c0 -30
-25 -74 -36 -63 -5 4 26 97 32 97 2 0 4 -15 4 -34z m913 2 c-4 -7 -8 -28 -8
-47 0 -22 -5 -36 -15 -38 -13 -4 -13 -3 0 6 8 6 10 11 4 11 -14 0 -10 46 6 65
15 18 24 20 13 3z m1967 -16 c-6 -2 -7 -9 -4 -14 4 -6 2 -8 -4 -5 -5 4 -8 16
-5 28 4 16 8 17 14 7 5 -7 4 -14 -1 -16z m-3740 -2 c0 -5 -9 -10 -20 -10 -16
0 -20 -7 -20 -31 0 -20 4 -28 12 -23 7 4 8 3 4 -5 -18 -29 -35 24 -20 63 7 17
44 22 44 6z m39 -14 c9 -10 8 -15 -3 -19 -16 -7 -26 1 -26 20 0 17 14 17 29
-1z m2011 -22 c0 -2 -9 -4 -20 -4 -11 0 -20 4 -20 9 0 5 9 7 20 4 11 -3 20 -7
20 -9z m-637 -11 c-7 -2 -19 -2 -25 0 -7 3 -2 5 12 5 14 0 19 -2 13 -5z
m-1483 -38 c0 -5 -5 -3 -10 5 -5 8 -10 20 -10 25 0 6 5 3 10 -5 5 -8 10 -19
10 -25z m2110 25 c0 -11 -78 -70 -92 -70 -5 0 -6 5 -2 12 4 7 3 8 -4 4 -14 -9
-15 13 -2 34 5 8 10 12 10 8 0 -4 12 0 28 8 31 16 62 18 62 4z m158 -32 c-3
-24 -8 -52 -11 -63 -4 -11 2 -2 13 20 11 22 20 50 20 61 0 19 4 21 33 15 26
-6 32 -12 32 -33 -1 -15 3 -24 7 -22 4 3 8 14 8 24 0 13 5 17 15 14 20 -8 20
-60 0 -68 -8 -3 -20 -16 -26 -30 -9 -19 -8 -29 6 -48 16 -22 17 -22 10 -1 -8
27 16 75 48 96 23 15 26 14 61 -20 47 -46 48 -80 2 -121 -38 -33 -103 -52
-203 -58 l-63 -3 0 30 c0 23 14 43 63 91 34 34 42 44 18 23 l-45 -39 -20 29
c-69 95 -84 110 -105 109 -12 0 -20 4 -18 10 2 6 17 11 34 11 23 1 29 -3 26
-15 -3 -8 2 -5 11 8 12 15 27 22 53 22 l35 0 -4 -42z m-406 -10 c-6 -6 -7 0
-4 19 5 21 7 23 10 9 2 -10 0 -22 -6 -28z m-1645 0 c-3 -7 -5 -2 -5 12 0 14 2
19 5 13 2 -7 2 -19 0 -25z m63 12 c0 -5 -4 -10 -10 -10 -5 0 -10 5 -10 10 0 6
5 10 10 10 6 0 10 -4 10 -10z m1685 0 c4 -6 11 -7 17 -4 7 4 8 2 4 -5 -6 -9
-11 -9 -23 1 -9 7 -19 11 -22 10 -3 -2 -15 -8 -26 -14 -20 -9 -20 -9 -1 6 23
18 42 20 51 6z m515 -10 c0 -11 -2 -20 -4 -20 -2 0 -6 9 -9 20 -3 11 -1 20 4
20 5 0 9 -9 9 -20z m-285 -65 l19 -37 -23 -44 c-13 -24 -27 -44 -32 -44 -4 0
-33 24 -64 53 -30 30 -57 52 -59 50 -2 -2 -17 11 -34 29 -18 17 -29 34 -26 37
2 3 16 -8 30 -24 19 -23 24 -25 20 -10 -4 13 5 7 27 -18 38 -44 57 -50 28 -8
-11 15 -18 31 -14 35 3 3 -2 6 -13 7 -14 0 -15 2 -4 6 8 3 22 11 30 18 40 34
78 18 115 -50z m-1762 50 c4 -8 2 -17 -3 -20 -6 -4 -10 3 -10 14 0 25 6 27 13
6z m807 -64 c-65 -64 -70 -73 -68 -107 1 -23 -3 -39 -10 -42 -7 -2 -12 -12
-12 -22 0 -10 -5 -20 -11 -22 -5 -2 -11 -18 -13 -35 -4 -56 -15 -48 -12 8 5
104 76 233 148 272 55 29 51 20 -22 -52z m710 59 c0 -5 -7 -7 -15 -4 -8 4 -15
8 -15 10 0 2 7 4 15 4 8 0 15 -4 15 -10z m-1039 -13 c-1 -4 -4 -6 -7 -4 -4 1
-17 -22 -30 -52 -14 -30 -26 -52 -29 -49 -9 9 45 120 56 116 6 -2 10 -7 10
-11z m38 -28 c-20 -12 -22 -4 -8 23 12 21 13 21 17 4 2 -10 -2 -22 -9 -27z
m-263 8 c1 -10 -2 -14 -8 -11 -6 4 -14 0 -19 -7 -6 -10 -10 -9 -15 6 -4 11
-12 24 -18 28 -6 4 4 6 23 4 23 -2 35 -9 37 -20z m179 13 c-3 -5 -12 -10 -18
-10 -7 0 -6 4 3 10 19 12 23 12 15 0z m122 -32 c-3 -7 -5 -2 -5 12 0 14 2 19
5 13 2 -7 2 -19 0 -25z m-186 -16 c-47 -61 -69 -73 -25 -15 21 28 43 52 47 52
5 1 -5 -16 -22 -37z m956 32 c-3 -3 -12 -4 -19 -1 -8 3 -5 6 6 6 11 1 17 -2
13 -5z m168 -24 c3 -6 -5 -10 -19 -10 -14 0 -28 5 -31 10 -3 6 5 10 19 10 14
0 28 -4 31 -10z m-1511 -16 c3 -8 2 -12 -4 -9 -6 3 -10 10 -10 16 0 14 7 11
14 -7z m1605 -19 c24 -24 22 -48 -5 -38 -8 3 -23 -2 -33 -11 -10 -9 -31 -16
-47 -16 -16 1 -38 0 -49 -2 -14 -2 -20 3 -20 17 0 43 54 64 56 23 1 -18 3 -16
8 8 4 17 11 36 15 43 10 16 45 5 75 -24z m-199 -6 c0 -6 -4 -7 -10 -4 -5 3
-10 11 -10 16 0 6 5 7 10 4 6 -3 10 -11 10 -16z m399 -41 c-40 -50 -49 -42
-18 16 18 34 26 42 36 34 10 -8 6 -19 -18 -50z m-1505 26 c8 -31 1 -44 -8 -16
-6 17 -14 20 -53 16 -28 -2 -43 0 -37 5 8 8 24 12 80 20 7 0 15 -11 18 -25z
m-173 -1 c-17 -11 -21 -22 -17 -42 4 -21 2 -19 -10 8 -16 36 -11 45 27 48 l22
2 -22 -16z m-51 -1 c0 -5 -6 -9 -12 -9 -7 0 -24 -3 -38 -7 -24 -8 -24 -8 -5 8
21 16 55 21 55 8z m454 -27 c-4 -8 -10 -12 -15 -9 -11 6 -2 24 11 24 5 0 7 -7
4 -15z m1144 3 c27 -27 13 -38 -48 -38 -33 0 -60 4 -60 9 0 17 26 30 48 24 13
-3 22 -1 22 6 0 15 23 14 38 -1z m-1238 -11 c0 -2 -10 -12 -22 -23 l-23 -19
19 23 c18 21 26 27 26 19z m-202 -23 c12 -8 20 -20 17 -25 -3 -5 1 -6 9 -3 11
4 16 0 16 -10 0 -9 -2 -16 -4 -16 -2 0 -12 -3 -22 -7 -13 -5 -15 -3 -9 7 5 9
4 11 -4 6 -6 -4 -25 2 -41 14 -25 18 -28 25 -19 36 15 18 29 18 57 -2z m3102
12 c0 -3 -4 -8 -10 -11 -5 -3 -10 -1 -10 4 0 6 5 11 10 11 6 0 10 -2 10 -4z
m-1644 -42 c-3 -9 -6 -20 -6 -25 0 -4 -7 -6 -15 -3 -11 5 -15 -1 -15 -21 0
-18 -4 -24 -12 -19 -10 6 -10 5 -1 -7 19 -24 27 -121 13 -163 -15 -45 -74 -94
-93 -77 -8 6 -16 8 -20 5 -3 -3 -5 18 -4 48 2 53 -30 187 -47 199 -5 4 -6 18
-2 32 5 23 12 25 98 35 51 5 97 10 102 11 4 0 5 -6 2 -15z m-214 -26 c-7 -7
-12 -8 -12 -2 0 6 3 14 7 17 3 4 9 5 12 2 2 -3 -1 -11 -7 -17z m268 -6 c0 -15
-2 -15 -10 -2 -14 22 -12 3 3 -22 17 -29 50 -64 60 -60 13 4 8 -46 -9 -88 -9
-23 -19 -39 -21 -36 -3 2 0 14 7 25 6 12 7 21 3 21 -4 0 -16 14 -25 30 -9 17
-24 30 -31 30 -16 0 -47 42 -47 63 0 19 50 68 61 61 5 -3 9 -13 9 -22z m-1522
-1 c17 -7 32 -18 32 -24 -1 -23 -26 -65 -61 -106 -34 -39 -38 -41 -53 -26 -9
9 -16 30 -16 46 0 25 -4 29 -27 29 -24 1 -21 3 16 16 24 9 52 14 61 11 12 -3
20 2 23 14 3 11 2 19 -3 19 -4 0 -10 9 -13 21 -3 11 -2 18 1 16 4 -2 22 -9 40
-16z m134 -51 c-9 -16 -21 -30 -25 -30 -9 0 -1 17 21 43 22 25 23 21 4 -13z
m688 6 c0 -2 -8 -10 -17 -17 -16 -13 -17 -12 -4 4 13 16 21 21 21 13z m155
-26 c-16 -16 -31 -28 -33 -25 -7 7 39 55 52 55 5 0 -3 -13 -19 -30z m-825 -26
c-7 -7 -18 -14 -24 -14 -6 0 -3 7 7 14 18 14 24 32 7 21 -11 -7 -14 8 -3 19
13 13 25 -24 13 -40z m-107 25 c-6 -6 -9 -19 -6 -28 4 -13 3 -14 -5 -1 -10 14
1 40 16 40 3 0 1 -5 -5 -11z m-653 -6 c0 -13 -14 -28 -27 -30 -6 -2 -11 6 -10
17 1 18 37 30 37 13z m30 -3 c0 -5 -5 -10 -11 -10 -5 0 -7 5 -4 10 3 6 8 10
11 10 2 0 4 -4 4 -10z m-693 -7 c-4 -3 -2 -12 4 -20 6 -7 10 -13 8 -14 -36 -7
-40 -6 -35 8 3 8 6 19 6 24 0 5 5 9 12 9 6 0 8 -3 5 -7z m1803 -21 c-5 -2 -5
-13 0 -28 7 -18 7 -23 -1 -19 -18 12 -28 49 -16 63 8 11 12 11 18 0 5 -7 4
-14 -1 -16z m290 18 c0 -5 -10 -15 -22 -21 -23 -12 -23 -12 -4 10 21 23 26 26
26 11z m267 4 c21 -6 60 -70 49 -81 -3 -4 -6 -1 -6 6 0 9 -4 9 -14 -1 -14 -13
-12 -22 5 -24 5 -1 11 -2 14 -3 3 0 1 -10 -5 -21 -12 -22 -73 -29 -85 -10 -3
6 3 10 14 10 12 0 21 5 21 12 0 17 -41 58 -58 58 -22 0 -8 23 16 25 30 2 40
14 22 25 -17 11 -5 12 27 4z m193 -38 c0 -26 -6 -18 -14 19 -5 22 -4 26 4 15
5 -8 10 -24 10 -34z m231 -28 c13 -23 -2 -50 -42 -78 -37 -27 -47 -21 -24 14
13 19 16 40 13 77 l-5 50 24 -23 c14 -13 29 -31 34 -40z m-2728 32 c3 -11 1
-18 -4 -14 -5 3 -9 12 -9 20 0 20 7 17 13 -6z m299 -11 c-4 -24 -7 -28 -13
-16 -5 8 -6 22 -3 31 11 27 21 17 16 -15z m192 16 c-4 -8 -10 -12 -15 -9 -14
8 -10 24 6 24 9 0 12 -6 9 -15z m1167 6 c-7 -5 -10 -14 -7 -20 4 -6 2 -11 -3
-11 -12 0 -15 23 -4 33 3 4 11 7 17 7 6 0 5 -4 -3 -9z m49 -19 c1 -22 26 -55
38 -48 5 3 9 0 10 -7 0 -7 4 -31 8 -53 l6 -42 -41 -7 c-24 -4 -38 -11 -35 -17
6 -10 -36 9 -46 21 -3 3 -21 12 -39 18 -28 10 -37 10 -43 0 -6 -9 -8 -9 -8 1
0 6 -7 12 -16 12 -8 0 -13 4 -10 8 2 4 -4 8 -15 8 -19 0 -18 -1 3 -18 l23 -18
-28 10 c-39 14 -40 13 -35 -15 3 -13 1 -22 -3 -19 -5 3 -9 13 -9 22 0 13 -10
17 -40 19 -22 1 -40 -2 -40 -7 0 -4 -13 -13 -30 -19 -21 -7 -30 -7 -30 1 0 7
-5 6 -15 -2 -11 -9 -15 -10 -15 -1 0 8 -8 10 -22 6 l-23 -6 23 20 c22 19 22
20 3 18 -11 -1 -23 -7 -25 -14 -3 -7 -13 -13 -21 -13 -9 0 -14 3 -12 8 8 12
-101 8 -114 -5 -7 -7 -10 -13 -6 -13 4 0 2 -6 -5 -14 -7 -8 -17 -11 -23 -8 -5
2 -4 -1 3 -9 16 -17 15 -37 -1 -54 -11 -11 -16 -10 -26 7 -7 11 -10 22 -7 25
8 8 -55 72 -67 69 -7 -2 -9 -1 -4 1 4 3 5 8 2 13 -3 4 2 10 10 14 8 3 15 0 15
-7 0 -16 39 -41 68 -44 12 -1 22 4 22 10 0 7 20 24 45 39 28 17 43 32 39 41
-9 24 22 40 63 33 85 -14 148 -17 133 -7 -8 5 -17 8 -21 5 -4 -2 -5 5 -2 16 3
11 14 25 25 31 17 9 19 8 17 -13 -4 -40 10 -58 45 -58 17 0 56 -6 86 -14 41
-11 57 -11 62 -3 5 8 8 6 8 -5 0 -19 46 -44 96 -54 19 -3 34 -5 34 -3 0 2 -7
39 -15 82 -18 93 -18 90 -5 82 6 -3 10 -14 10 -23z m735 18 c3 -5 1 -10 -4
-10 -6 0 -11 5 -11 10 0 6 2 10 4 10 3 0 8 -4 11 -10z m1655 -4 c0 -3 -4 -8
-10 -11 -5 -3 -10 -1 -10 4 0 6 5 11 10 11 6 0 10 -2 10 -4z m-3650 -33 c0
-10 -4 -14 -8 -8 -4 6 -11 13 -16 18 -5 4 -2 7 7 7 10 0 17 -8 17 -17z m780
13 c0 -2 -7 -7 -16 -10 -8 -3 -12 -2 -9 4 6 10 25 14 25 6z m-757 -26 c-10
-11 -18 -20 -19 -20 -1 0 0 9 3 20 3 11 12 20 19 20 11 0 10 -5 -3 -20z m431
-6 c9 -8 16 -19 16 -24 0 -5 3 -17 7 -27 7 -17 6 -17 -11 0 -9 9 -26 17 -37
17 -10 0 -19 4 -19 8 0 5 -7 9 -15 9 -8 0 -15 -5 -15 -10 0 -6 -2 -8 -5 -5 -9
8 6 38 16 32 5 -3 9 0 9 5 0 17 37 13 54 -5z m3373 -6 c-3 -8 -6 -5 -6 6 -1
11 2 17 5 13 3 -3 4 -12 1 -19z m-3857 -9 c0 -4 -7 -6 -15 -3 -8 4 -15 10 -15
15 0 4 7 6 15 3 8 -4 15 -10 15 -15z m2684 -9 c31 -12 56 -27 56 -34 0 -17 80
-73 116 -81 56 -13 59 -14 38 -29 -23 -17 -62 -11 -89 14 -19 17 -123 45 -133
36 -2 -3 9 -8 24 -11 56 -13 74 -26 68 -52 -5 -17 -3 -24 7 -23 29 4 39 0 39
-17 -1 -16 -2 -16 -15 1 -8 11 -15 14 -15 7 0 -7 -4 -9 -10 -6 -5 3 -10 0 -10
-8 0 -8 13 -20 30 -25 16 -6 28 -17 27 -24 -2 -7 -2 -10 0 -5 3 4 13 7 24 7
10 0 19 4 19 9 0 5 8 12 18 14 10 3 6 5 -11 6 -16 1 -26 -3 -22 -9 3 -6 -1 -7
-9 -4 -9 3 -13 10 -10 16 8 13 127 0 194 -22 31 -11 76 -21 100 -24 25 -2 72
-7 105 -11 54 -6 136 6 223 31 13 4 22 2 22 -5 0 -6 -7 -11 -15 -11 -8 0 -15
-6 -15 -14 0 -17 -27 -29 -43 -19 -17 10 -88 6 -101 -7 -16 -16 -2 -20 24 -7
20 10 32 10 60 0 28 -9 30 -12 12 -12 -16 -1 -21 -5 -16 -13 6 -10 4 -10 -7 0
-16 15 -33 16 -24 2 4 -6 3 -10 -2 -9 -24 4 -63 -2 -59 -9 3 -5 -8 -9 -25 -9
-19 0 -25 3 -17 9 7 4 9 8 3 9 -5 0 -21 3 -35 6 -14 3 -36 6 -50 7 -14 0 -31
8 -38 16 -10 13 -13 13 -23 -4 -9 -15 -13 -16 -20 -5 -6 10 -9 10 -9 2 0 -9
-7 -10 -24 -3 -13 5 -26 7 -28 4 -3 -2 -17 2 -31 9 -15 8 -24 17 -21 20 4 3
-3 5 -15 4 -11 -1 -21 -8 -21 -17 0 -12 -2 -13 -9 -1 -6 10 -19 12 -45 7 -31
-6 -35 -5 -29 10 5 14 2 16 -23 10 -16 -4 -31 -11 -34 -14 -3 -4 -13 -8 -23
-8 -14 -2 -12 3 9 23 27 25 27 33 1 37 -8 1 -22 8 -30 14 -10 9 -17 10 -22 2
-3 -5 1 -10 9 -10 17 0 20 -23 6 -55 -7 -17 -9 -17 -9 -3 -1 10 -10 22 -21 28
-11 6 -19 14 -17 18 3 4 1 16 -4 27 -7 18 -8 18 -9 -5 -1 -14 -4 -19 -7 -12
-2 6 -9 12 -15 12 -5 0 0 -12 11 -26 23 -29 29 -56 9 -36 -21 21 -28 13 -27
-25 1 -24 3 -29 6 -15 2 12 8 22 13 22 4 0 6 -9 3 -20 -6 -22 -63 -68 -63 -51
0 6 4 11 9 11 15 0 22 30 11 48 -8 15 -9 15 -10 1 0 -8 -6 -27 -12 -41 l-13
-27 -11 37 -11 37 -12 -26 c-12 -24 -41 -36 -41 -17 0 21 -37 5 -48 -22 -15
-33 -32 -31 -33 3 0 21 -1 21 -9 2 -8 -19 -9 -19 -9 3 -1 12 -5 22 -11 22 -5
0 -10 7 -10 16 0 8 -5 12 -10 9 -6 -4 -16 7 -23 24 -12 29 -32 35 -21 6 4 -9
-2 -11 -20 -8 -18 4 -28 15 -36 39 -6 19 -16 37 -22 40 -7 4 -8 2 -4 -5 4 -6
2 -18 -4 -26 -10 -12 -10 -15 0 -15 8 0 11 -9 7 -27 -3 -19 1 -31 17 -44 32
-28 38 -23 16 14 -32 52 -23 56 11 5 17 -27 35 -48 40 -48 13 0 11 14 -3 30
-11 12 -10 12 7 0 30 -21 55 -53 54 -70 0 -9 -4 -6 -9 7 -6 15 -15 20 -29 16
-12 -3 -18 -9 -16 -14 3 -4 13 -6 23 -3 14 5 14 4 2 -4 -8 -6 -18 -8 -23 -5
-4 2 -15 2 -24 -1 -12 -5 -13 -9 -3 -21 7 -8 8 -15 3 -15 -6 0 -8 -12 -5 -27
5 -26 4 -27 -12 -10 -18 18 -62 24 -51 7 3 -5 0 -10 -7 -11 -7 0 -4 -4 7 -9
11 -5 14 -9 8 -9 -8 -1 -13 -15 -13 -37 0 -24 -4 -33 -12 -28 -7 4 -8 3 -4 -4
4 -7 2 -12 -5 -12 -7 0 -10 13 -7 35 3 23 -1 36 -10 40 -7 2 -11 1 -8 -4 3 -4
-3 -16 -14 -26 -30 -27 -24 -42 16 -50 44 -8 64 16 55 68 -1 5 3 6 8 3 9 -6 9
-17 -4 -61 -4 -15 1 -23 20 -32 14 -6 27 -7 30 -3 3 5 -1 11 -7 13 -8 3 -5 6
5 6 11 1 21 -8 24 -19 3 -11 9 -17 14 -14 5 3 6 -2 3 -10 -5 -12 1 -16 22 -16
22 0 25 -3 14 -9 -8 -6 -19 -7 -25 -3 -5 3 -26 7 -46 7 -26 0 -35 -3 -32 -12
3 -7 16 -13 28 -13 13 0 27 -4 30 -10 9 -15 -39 -12 -71 5 -16 8 -32 11 -37 6
-10 -10 -77 8 -77 21 0 12 -72 39 -87 34 -10 -4 -11 -1 -4 12 4 9 5 26 0 37
-4 11 -8 16 -8 12 -1 -5 -6 -5 -12 -1 -8 5 -8 9 1 14 7 4 9 13 5 20 -5 8 -11
5 -22 -9 -8 -12 -20 -21 -26 -21 -7 0 -4 5 6 11 9 5 17 14 17 18 0 15 -104
113 -108 102 -2 -6 -8 -8 -14 -5 -6 4 -5 10 3 15 18 11 9 18 -28 21 -18 1 -29
6 -26 10 2 5 13 6 24 3 13 -5 17 -2 14 8 -10 24 -110 60 -147 51 -45 -10 -78
-11 -78 -2 0 4 -15 1 -32 -6 -18 -7 -44 -10 -57 -7 -24 7 -24 7 15 31 32 21
52 25 114 25 64 0 85 -5 141 -32 41 -20 74 -43 88 -65 13 -18 34 -41 48 -52
24 -18 26 -18 59 0 57 31 87 68 81 101 -3 15 -1 35 4 44 9 18 -12 82 -31 94
-16 10 -12 25 7 25 15 0 14 2 -2 14 -11 8 -23 12 -26 10 -4 -2 -5 5 -2 16 5
19 8 19 27 7 22 -15 11 -19 151 58 25 14 52 25 59 25 7 0 23 9 36 20 59 51
214 61 324 20z m-2299 10 c3 -5 1 -10 -4 -10 -6 0 -11 5 -11 10 0 6 2 10 4 10
3 0 8 -4 11 -10z m3301 -22 c4 -7 4 -10 -1 -6 -10 9 -38 -28 -31 -41 3 -4 -5
-13 -19 -19 -23 -11 -23 -10 6 34 34 49 35 49 45 32z m-3146 -33 c0 -5 -5 -3
-10 5 -5 8 -10 20 -10 25 0 6 5 3 10 -5 5 -8 10 -19 10 -25z m1177 13 c-3 -8
-6 -5 -6 6 -1 11 2 17 5 13 3 -3 4 -12 1 -19z m283 -8 c0 -5 -2 -10 -4 -10 -3
0 -8 5 -11 10 -3 6 -1 10 4 10 6 0 11 -4 11 -10z m815 -20 c3 -5 -1 -10 -9
-10 -9 0 -16 5 -16 10 0 6 4 10 9 10 6 0 13 -4 16 -10z m-818 -22 c-3 -8 -6
-5 -6 6 -1 11 2 17 5 13 3 -3 4 -12 1 -19z m1756 3 c15 -5 11 -9 -20 -20 -43
-15 -58 -32 -40 -43 8 -5 7 -8 -5 -8 -9 0 -18 -4 -20 -10 -1 -5 -15 -11 -30
-12 -16 -1 -28 -6 -28 -11 0 -5 -7 -7 -14 -4 -10 4 -13 1 -9 -9 4 -11 -5 -14
-43 -14 l-49 0 75 36 c106 51 103 49 108 63 3 10 -2 11 -19 6 -20 -7 -21 -6
-8 7 26 26 65 34 102 19z m-2563 -5 c0 -3 -4 -8 -10 -11 -5 -3 -10 -1 -10 4 0
6 5 11 10 11 6 0 10 -2 10 -4z m728 -58 c21 -21 13 -29 -12 -13 -24 16 -24 15
-19 -6 6 -21 5 -21 -21 -4 -14 9 -26 21 -26 26 0 13 64 11 78 -3z m-741 -55
c-3 -10 -5 -4 -5 12 0 17 2 24 5 18 2 -7 2 -21 0 -30z m-473 2 c3 -8 1 -15 -4
-15 -6 0 -10 7 -10 15 0 8 2 15 4 15 2 0 6 -7 10 -15z m1097 3 c0 -10 2 -10 6
-1 3 9 10 9 21 3 9 -6 29 -14 45 -20 25 -9 27 -14 27 -60 0 -27 -2 -50 -5 -50
-10 0 -65 30 -65 36 0 3 6 2 13 -2 6 -4 3 2 -7 12 -11 11 -31 19 -45 18 -46
-2 -69 44 -33 65 24 14 42 13 43 -1z m209 -33 c-15 -39 -23 -25 -8 16 6 18 13
29 15 23 2 -6 -1 -24 -7 -39z m-1410 31 c0 -2 -7 -6 -15 -10 -8 -3 -15 -1 -15
4 0 6 7 10 15 10 8 0 15 -2 15 -4z m25 -16 c3 -5 1 -10 -4 -10 -6 0 -11 5 -11
10 0 6 2 10 4 10 3 0 8 -4 11 -10z m46 -27 c13 -16 12 -17 -3 -4 -17 13 -22
21 -14 21 2 0 10 -8 17 -17z m486 4 c16 6 26 -14 16 -31 -6 -11 -15 -8 -43 16
-30 25 -31 28 -10 20 14 -5 30 -7 37 -5z m-94 -14 c-13 -2 -33 -2 -45 0 -13 2
-3 4 22 4 25 0 35 -2 23 -4z m-203 -30 c18 -17 18 -18 -8 -19 -15 -1 -21 1
-14 3 10 4 10 8 1 19 -16 20 -2 17 21 -3z m90 2 c-7 -8 -9 -15 -5 -15 5 0 0
-9 -9 -19 -9 -10 -21 -32 -26 -47 l-8 -29 -1 32 c-1 21 5 36 17 42 13 8 14 11
2 11 -11 0 -8 6 9 20 28 24 38 26 21 5z m1020 -3 c0 -10 -6 -26 -14 -37 -12
-17 -13 -16 -20 10 -5 19 -3 31 6 36 20 13 28 11 28 -9z m-980 4 c0 -2 -7 -7
-16 -10 -8 -3 -12 -2 -9 4 6 10 25 14 25 6z m-240 -47 c0 -6 -4 -7 -10 -4 -5
3 -10 11 -10 16 0 6 5 7 10 4 6 -3 10 -11 10 -16z m2150 17 c0 -3 -4 -8 -10
-11 -5 -3 -10 -1 -10 4 0 6 5 11 10 11 6 0 10 -2 10 -4z m555 -6 c3 -6 -1 -7
-9 -4 -18 7 -21 14 -7 14 6 0 13 -4 16 -10z m-3150 -10 c-3 -5 3 -10 14 -10
29 0 30 -20 4 -47 -13 -12 -26 -23 -28 -23 -2 0 -10 13 -18 29 -16 31 -7 61
19 61 8 0 12 -4 9 -10z m2535 0 c-8 -5 -19 -10 -25 -10 -5 0 -3 5 5 10 8 5 20
10 25 10 6 0 3 -5 -5 -10z m150 -11 c0 -17 -28 -40 -35 -29 -3 5 -1 10 4 10 6
0 11 7 11 15 0 8 5 15 10 15 6 0 10 -5 10 -11z m-2444 -24 c-2 -7 0 -18 5 -24
6 -8 5 -8 -3 -1 -15 13 -22 54 -7 45 6 -4 8 -13 5 -20z m2568 10 c-4 -8 -8
-15 -10 -15 -2 0 -4 7 -4 15 0 8 4 15 10 15 5 0 7 -7 4 -15z m-2679 -15 c3 -5
1 -10 -4 -10 -6 0 -11 5 -11 10 0 6 2 10 4 10 3 0 8 -4 11 -10z m336 -7 c13
-16 12 -17 -3 -4 -17 13 -22 21 -14 21 2 0 10 -8 17 -17z m1016 -5 c-3 -8 -6
-5 -6 6 -1 11 2 17 5 13 3 -3 4 -12 1 -19z m-480 6 c-3 -3 -12 -4 -19 -1 -8 3
-5 6 6 6 11 1 17 -2 13 -5z m-910 -21 c15 -10 43 -19 63 -20 96 -7 112 -12
170 -51 33 -23 65 -42 70 -42 5 0 12 -5 15 -10 4 -6 3 -9 -2 -8 -16 5 -74 -69
-67 -86 4 -10 0 -18 -12 -21 -11 -4 -31 -12 -45 -19 -20 -10 -31 -11 -47 -2
-20 11 -21 13 -6 28 14 14 13 17 -14 37 -17 11 -37 21 -46 21 -9 0 -28 7 -42
16 -17 12 -36 15 -62 10 -26 -4 -45 -1 -60 10 -21 14 -32 42 -13 29 5 -3 12
-1 15 4 4 5 -1 11 -11 13 -10 2 -17 13 -17 31 -1 19 2 26 11 23 7 -3 13 1 13
9 0 8 12 21 28 29 34 19 28 19 59 -1z m2128 -12 c-6 -21 -25 -20 -25 0 0 6 5
7 10 4 6 -3 10 2 10 11 0 10 3 15 6 11 3 -3 3 -15 -1 -26z m-2015 9 c0 -5 -5
-10 -11 -10 -5 0 -7 5 -4 10 3 6 8 10 11 10 2 0 4 -4 4 -10z m1925 -10 c3 -5
1 -10 -4 -10 -6 0 -11 5 -11 10 0 6 2 10 4 10 3 0 8 -4 11 -10z m295 -33 c0
-5 -11 -7 -25 -5 -18 4 -25 1 -25 -11 -1 -14 -2 -14 -11 2 -14 23 -28 21 -39
-5 -8 -22 -9 -22 -9 -2 -1 11 2 24 6 28 10 10 103 4 103 -7z m82 -4 c-6 -2
-10 -9 -6 -14 10 -17 -7 -31 -22 -18 -19 15 -18 27 4 32 24 6 40 7 24 0z
m-1924 -21 c-2 -11 3 -26 11 -36 12 -14 12 -16 -2 -10 -19 7 -28 29 -21 49 8
21 16 19 12 -3z m1477 -2 c-3 -5 -11 -10 -16 -10 -6 0 -7 5 -4 10 3 6 11 10
16 10 6 0 7 -4 4 -10z m100 -7 c-2 -10 -4 -20 -5 -23 -1 -3 -2 -9 -1 -13 1 -5
-3 -6 -9 -2 -14 8 -13 28 2 43 16 16 17 15 13 -5z m-1345 3 c0 -2 -8 -10 -17
-17 -16 -13 -17 -12 -4 4 13 16 21 21 21 13z m1540 0 c0 -3 -4 -8 -10 -11 -5
-3 -10 -1 -10 4 0 6 5 11 10 11 6 0 10 -2 10 -4z m90 -17 c0 -6 -6 -7 -12 -4
-7 4 -4 -1 6 -9 24 -20 17 -28 -29 -32 -36 -3 -105 -47 -105 -67 0 -7 4 -7 12
1 7 7 19 12 28 12 8 -1 -4 -10 -27 -21 -24 -11 -43 -22 -43 -25 0 -3 4 -3 9 1
5 3 13 0 16 -6 5 -7 -1 -10 -16 -8 -13 2 -45 -7 -71 -19 -49 -23 -75 -29 -48
-12 10 6 11 10 3 10 -7 0 -13 5 -13 11 0 6 6 9 14 6 8 -3 17 0 19 8 3 7 20 16
37 20 28 6 30 8 14 20 -16 11 -15 12 10 10 33 -4 69 24 61 46 -9 23 17 48 55
53 19 3 29 3 23 0 -7 -3 -13 -11 -13 -17 0 -7 12 1 26 16 24 26 44 28 44 6z
m-1890 -3 c9 -12 8 -15 -9 -13 -21 1 -26 8 -14 20 9 9 9 9 23 -7z m108 -26 c8
0 13 -2 10 -5 -11 -11 -54 7 -67 27 -13 21 -13 21 14 0 15 -12 35 -22 43 -22z
m1807 30 c3 -5 1 -10 -4 -10 -6 0 -11 5 -11 10 0 6 2 10 4 10 3 0 8 -4 11 -10z
m95 -15 c6 3 10 -1 10 -9 0 -9 -6 -13 -14 -10 -8 3 -17 1 -20 -5 -4 -5 -18 -8
-31 -5 -14 2 -25 0 -25 -6 0 -5 -7 -10 -16 -10 -11 0 -9 8 12 35 26 34 28 35
51 20 13 -9 28 -13 33 -10z m927 -22 c-6 -33 2 -28 15 8 6 16 12 28 15 26 8
-9 -27 -78 -37 -72 -5 3 -10 1 -10 -5 0 -5 -13 -9 -30 -8 -16 1 -30 5 -30 9 0
19 13 38 23 32 6 -3 7 -1 3 5 -4 6 -1 20 5 31 17 26 52 6 46 -26z m90 25 c-3
-8 -6 -5 -6 6 -1 11 2 17 5 13 3 -3 4 -12 1 -19z m-24 -8 c-3 -12 -8 -19 -11
-16 -5 6 5 36 12 36 2 0 2 -9 -1 -20z m-1473 0 c0 -5 -7 -7 -15 -4 -8 4 -15 8
-15 10 0 2 7 4 15 4 8 0 15 -4 15 -10z m571 -18 c-6 -2 -9 -7 -6 -12 6 -10
-15 -8 -32 3 -8 5 -13 3 -13 -3 0 -6 -4 -8 -10 -5 -5 3 -10 14 -10 23 0 11 3
13 8 5 5 -8 15 -8 37 1 20 9 31 9 34 2 2 -5 -1 -12 -8 -14z m-1859 -4 c-7 -7
-12 -8 -12 -2 0 14 12 26 19 19 2 -3 -1 -11 -7 -17z m2188 18 c0 -3 -4 -8 -10
-11 -5 -3 -10 -1 -10 4 0 6 5 11 10 11 6 0 10 -2 10 -4z m-2214 -13 c-13 -13
-82 -33 -116 -33 -52 0 -76 19 -25 20 22 1 58 5 80 9 53 11 70 12 61 4z m1269
-3 c-3 -5 -12 -10 -18 -10 -7 0 -6 4 3 10 19 12 23 12 15 0z m165 -10 c0 -5
-2 -10 -4 -10 -3 0 -8 5 -11 10 -3 6 -1 10 4 10 6 0 11 -4 11 -10z m690 -15
c7 -9 8 -15 2 -15 -5 0 -15 -13 -21 -30 -5 -16 -15 -30 -21 -30 -7 0 -8 5 -3
13 4 6 9 26 10 42 0 17 2 31 2 33 3 7 20 0 31 -13z m-365 -25 c3 -5 1 -10 -4
-10 -6 0 -11 5 -11 10 0 6 2 10 4 10 3 0 8 -4 11 -10z m-458 -16 c-3 -3 -12
-4 -19 -1 -8 3 -5 6 6 6 11 1 17 -2 13 -5z m740 -19 c-7 -13 -14 -20 -15 -14
-2 5 2 16 8 24 18 21 20 18 7 -10z m-3770 -7 c-3 -8 -6 -5 -6 6 -1 11 2 17 5
13 3 -3 4 -12 1 -19z m3733 7 c0 -8 -4 -15 -10 -15 -5 0 -7 7 -4 15 4 8 8 15
10 15 2 0 4 -7 4 -15z m480 -11 c0 -8 -5 -12 -10 -9 -6 4 -8 11 -5 16 9 14 15
11 15 -7z m-3150 -28 c0 -17 -14 -29 -23 -20 -8 8 3 34 14 34 5 0 9 -6 9 -14z
m1427 -58 c-2 -13 -4 -3 -4 22 0 25 2 35 4 23 2 -13 2 -33 0 -45z m780 36 c24
5 25 4 10 -5 -21 -12 -67 -4 -67 12 0 8 5 7 15 -1 9 -7 26 -10 42 -6z m-546
-12 c-13 -2 -27 0 -32 5 -6 6 3 7 23 4 28 -4 29 -6 9 -9z m369 -7 c-7 -9 -15
-13 -17 -11 -7 7 7 26 19 26 6 0 6 -6 -2 -15z m791 -18 c-10 -9 -11 -8 -5 6 3
10 9 15 12 12 3 -3 0 -11 -7 -18z m-2446 -3 c17 4 51 0 76 -7 25 -8 53 -10 64
-6 65 25 106 -9 104 -85 -1 -48 -15 -126 -18 -99 -1 9 -14 12 -40 9 -40 -4
-71 -29 -114 -90 -22 -32 -55 -34 -62 -3 -3 12 -9 71 -14 130 -5 71 -13 113
-22 122 -17 16 -94 26 -107 13 -7 -7 -17 -6 -29 0 -15 9 -15 12 -3 16 28 10
85 11 110 3 14 -5 39 -6 55 -3z m2401 -10 c-4 -9 -9 -15 -11 -12 -3 3 -3 13 1
22 4 9 9 15 11 12 3 -3 3 -13 -1 -22z m-2964 -26 c-10 -22 -11 -21 -11 12 -1
26 2 31 11 22 8 -8 8 -17 0 -34z m944 -1 c97 -65 115 -82 139 -132 24 -49 60
-203 50 -213 -3 -3 -5 1 -5 9 0 8 -10 2 -25 -15 -18 -21 -22 -33 -15 -41 8
-10 6 -13 -7 -11 -28 2 -72 -91 -78 -164 -3 -33 -9 -69 -15 -80 -5 -10 -10
-33 -10 -50 0 -27 -2 -30 -19 -20 -11 5 -41 10 -67 10 -37 0 -45 3 -36 12 18
18 14 52 -8 78 -11 13 -20 28 -20 35 0 17 22 35 43 35 16 0 17 3 7 15 -14 16
-40 20 -40 6 0 -5 -16 -11 -35 -13 -32 -4 -36 -2 -33 16 2 14 13 23 33 26 28
5 30 8 29 50 -6 283 -6 459 0 468 13 22 64 12 112 -21z m1189 19 c22 -8 34
-15 27 -15 -7 -1 -11 -5 -8 -9 3 -5 -1 -9 -8 -9 -8 0 -12 6 -9 14 7 18 -22 16
-42 -3 -14 -14 -25 -15 -83 -6 l-67 11 68 -5 c42 -3 67 -1 67 6 0 5 -13 10
-29 10 -47 0 -45 16 2 18 23 2 60 -4 82 -12z m90 -27 c19 -9 19 -9 -2 -5 -12
2 -24 -1 -26 -7 -2 -6 -9 -7 -15 -3 -14 9 -6 26 11 25 7 0 21 -5 32 -10z
m-3145 -3 c0 -2 -7 -9 -15 -16 -13 -11 -14 -10 -9 4 5 14 24 23 24 12z m1336
-28 c9 -28 6 -101 -5 -108 -4 -3 -13 -15 -20 -27 -13 -26 -33 -29 -50 -9 -8
10 -9 16 -2 21 6 3 9 16 7 28 -3 16 -10 22 -27 20 -13 -1 -18 1 -11 3 6 3 12
12 12 19 0 7 14 18 31 24 24 8 30 15 26 31 -7 29 29 27 39 -2z m1913 6 c2 -2
-4 -4 -15 -5 -10 0 -31 -2 -46 -4 -20 -3 -25 0 -21 11 4 11 15 13 42 8 20 -4
38 -8 40 -10z m647 -23 c3 -14 8 -35 11 -45 5 -18 3 -18 -23 3 -37 29 -44 88
-9 74 9 -3 18 -17 21 -32z m-916 18 c56 -7 97 -16 92 -21 -12 -12 -215 -20
-207 -8 3 5 -1 10 -9 10 -9 0 -16 7 -16 15 0 18 10 18 140 4z m535 -12 c31 -8
45 -16 37 -21 -7 -4 -19 -5 -27 -2 -8 3 -15 1 -15 -3 0 -5 6 -12 13 -14 6 -3
-5 -6 -25 -6 -20 -1 -45 -4 -55 -7 -15 -5 -15 -4 -3 5 8 6 26 11 40 11 l25 1
-23 10 c-13 5 -29 6 -35 2 -7 -4 -33 -8 -60 -9 -58 -2 -59 15 -1 33 51 15 69
15 129 0z m-3485 -7 c0 -5 -7 -10 -15 -10 -13 0 -13 -3 -3 -20 10 -16 15 -18
23 -8 22 29 85 2 85 -36 0 -9 7 -16 16 -16 9 0 18 -9 21 -20 6 -21 23 -28 23
-9 0 6 7 3 16 -5 17 -18 34 -21 34 -6 0 10 60 74 64 69 1 -2 8 -19 15 -36 15
-38 26 -42 34 -13 3 12 11 18 19 15 8 -3 21 1 28 10 24 28 47 18 54 -24 5 -32
11 -41 37 -50 17 -6 35 -8 41 -5 5 3 16 0 24 -7 13 -10 17 -10 25 2 5 8 9 9 9
3 0 -11 27 -22 75 -31 11 -2 22 -8 23 -13 2 -6 11 -17 19 -25 20 -20 30 -95
14 -104 -7 -4 -26 -6 -44 -5 -95 9 -274 2 -325 -12 -43 -13 -91 -15 -233 -12
-98 2 -181 7 -186 11 -4 5 0 21 9 37 15 27 15 30 0 42 -13 11 -14 11 -7 -1 5
-9 4 -12 -3 -7 -6 4 -8 14 -5 23 4 11 3 14 -5 9 -15 -9 -15 -7 2 40 7 22 11
54 9 72 -4 26 -2 32 12 32 15 0 15 2 4 16 -8 10 -15 12 -17 5 -2 -6 -8 -9 -12
-6 -11 7 9 55 22 55 4 0 8 5 8 11 0 5 -6 7 -12 3 -10 -5 -10 -4 -1 6 15 16 14
16 36 -30 l17 -35 0 32 c0 17 -5 33 -12 35 -6 2 -8 10 -4 16 9 14 66 16 66 2z
m2737 -12 c-3 -8 -6 -5 -6 6 -1 11 2 17 5 13 3 -3 4 -12 1 -19z m-200 -30 c-3
-8 -6 -5 -6 6 -1 11 2 17 5 13 3 -3 4 -12 1 -19z m392 8 c-2 -2 -22 -6 -44 -9
-27 -4 -35 -3 -25 3 14 9 79 15 69 6z m371 -5 c0 -5 -7 -12 -16 -15 -14 -5
-15 -4 -4 9 14 17 20 19 20 6z m-2310 -16 c-7 -9 -15 -13 -19 -10 -3 3 1 10 9
15 21 14 24 12 10 -5z m2008 8 c-10 -2 -28 -2 -40 0 -13 2 -5 4 17 4 22 1 32
-1 23 -4z m1277 -9 c9 -9 13 -24 10 -32 -3 -8 -10 -36 -16 -61 -10 -47 -42
-91 -65 -91 -15 0 -30 51 -40 132 -6 50 -4 57 12 61 41 10 83 6 99 -9z m-765
-3 c0 -5 -7 -14 -15 -21 -16 -14 -18 -10 -9 14 6 17 24 22 24 7z m-1023 -48
c-3 -10 -5 -2 -5 17 0 19 2 27 5 18 2 -10 2 -26 0 -35z m1400 17 c44 0 57 -10
67 -52 11 -48 -4 -88 -44 -113 -41 -26 -41 -27 -18 -172 12 -82 7 -113 -17
-93 -8 7 -15 20 -15 29 0 8 -12 38 -26 66 -26 51 -66 88 -164 152 -30 20 -58
40 -61 45 -3 6 -9 9 -13 8 -18 -5 -86 32 -86 46 0 18 23 44 40 44 6 0 9 4 5 9
-3 5 4 12 15 16 11 3 20 13 20 21 0 8 7 14 15 14 8 0 15 -4 15 -10 0 -5 -6
-10 -12 -10 -10 0 -10 -2 0 -9 8 -4 13 -11 13 -15 -1 -3 5 -20 12 -37 11 -28
14 -30 26 -15 12 14 12 16 -3 10 -18 -7 -20 0 -7 25 6 11 23 18 48 19 35 2 36
1 16 -11 -12 -6 -22 -15 -22 -19 -1 -11 -39 -48 -48 -47 -10 1 -25 -30 -18
-41 3 -6 16 -10 28 -10 13 0 32 -7 43 -15 12 -8 25 -11 29 -7 5 4 5 1 1 -5 -4
-8 -1 -13 8 -13 9 0 16 -4 16 -10 0 -13 21 -13 55 0 l27 10 -21 34 c-22 36
-30 130 -11 141 6 3 10 16 10 27 0 20 1 20 18 5 11 -10 35 -17 59 -17z m-1078
-3 c12 -15 12 -17 -3 -11 -9 3 -16 13 -16 22 0 8 1 13 3 11 1 -2 9 -12 16 -22z
m298 17 c-7 -7 -138 -6 -145 1 -3 3 30 5 73 5 43 0 75 -3 72 -6z m353 -36 c0
-9 -6 -18 -12 -21 -8 -2 1 -12 19 -23 59 -34 36 -42 -27 -10 -47 25 -47 24
-22 42 12 8 22 25 22 37 0 18 2 19 10 7 5 -8 10 -22 10 -32z m-2447 -10 c-14
-16 -14 -17 5 -13 19 3 20 0 17 -61 -4 -69 -16 -89 -59 -100 -20 -5 -26 -2
-26 9 0 9 7 20 15 24 10 6 11 13 5 23 -8 12 -10 12 -10 1 0 -11 -3 -11 -15 -1
-13 11 -15 8 -15 -22 0 -42 -27 -85 -44 -68 -8 8 -7 13 4 20 13 9 13 10 0 10
-8 0 -23 14 -32 30 -11 18 -25 30 -38 30 -16 0 -20 4 -15 19 3 12 0 21 -10 25
-25 9 -16 40 21 68 31 23 39 25 62 16 15 -7 32 -17 37 -23 20 -21 73 -2 81 30
5 19 9 22 19 12 11 -10 10 -15 -2 -29z m2223 20 c13 -6 21 -15 18 -20 -3 -4
-12 -2 -20 6 -20 20 -50 10 -32 -11 10 -12 9 -14 -8 -11 -13 2 -18 -2 -16 -13
1 -9 -5 -16 -13 -16 -20 0 -19 16 2 39 10 11 12 18 4 18 -6 0 -14 -6 -17 -13
-5 -14 -34 -19 -34 -6 0 4 -10 5 -21 2 -19 -5 -20 -4 -10 15 6 11 16 23 23 26
17 7 95 -3 124 -16z m161 16 c-3 -3 -12 -4 -19 -1 -8 3 -5 6 6 6 11 1 17 -2
13 -5z m-700 -26 c-3 -8 -6 -5 -6 6 -1 11 2 17 5 13 3 -3 4 -12 1 -19z m158
12 c3 -5 1 -10 -4 -10 -6 0 -11 5 -11 10 0 6 2 10 4 10 3 0 8 -4 11 -10z m205
-1 c0 -5 -4 -7 -10 -4 -5 3 -10 1 -10 -5 0 -6 -4 -8 -10 -5 -17 10 -11 25 10
25 11 0 20 -5 20 -11z m309 -25 c2 -2 -8 -4 -22 -4 -18 0 -27 5 -27 15 0 13 4
14 23 4 12 -6 24 -13 26 -15z m-59 6 c0 -5 -7 -7 -15 -4 -8 4 -15 8 -15 10 0
2 7 4 15 4 8 0 15 -4 15 -10z m-2086 -9 c3 -5 0 -14 -8 -20 -11 -9 -15 -7 -19
9 -5 20 16 29 27 11z m-138 -30 c-4 -5 -1 -11 5 -13 6 -2 1 -12 -10 -22 -21
-19 -21 -19 -18 0 3 21 15 44 23 44 3 0 3 -4 0 -9z m71 -13 c-3 -8 -6 -5 -6 6
-1 11 2 17 5 13 3 -3 4 -12 1 -19z m537 -22 l-6 -27 -15 27 c-11 22 -11 29 -1
35 19 12 30 -5 22 -35z m1401 25 c-6 -5 -26 -11 -45 -14 l-35 -4 38 -1 c21 -1
48 3 59 9 14 8 23 8 31 0 8 -8 6 -11 -6 -11 -9 0 -17 -5 -17 -11 0 -6 -9 -8
-22 -3 -20 6 -21 5 -10 -8 10 -13 10 -17 -3 -21 -8 -4 -14 -1 -12 6 2 13 -2
13 -46 2 -20 -5 -28 -3 -33 9 -3 9 -12 16 -19 16 -7 0 -19 8 -26 17 -13 15
-11 16 17 10 17 -3 44 -2 60 3 40 12 80 12 69 1z m-305 -29 c24 -5 60 -31 60
-44 0 -6 -11 -1 -25 12 -21 20 -25 21 -25 6 0 -9 -4 -15 -9 -12 -5 3 -9 0 -8
-7 1 -35 -4 -80 -8 -75 -3 2 -7 36 -10 74 -3 38 -1 65 3 59 4 -5 14 -11 22
-13z m145 0 c-3 -3 -11 0 -18 7 -9 10 -8 11 6 5 10 -3 15 -9 12 -12z m-1848
-49 c-3 -10 -5 -4 -5 12 0 17 2 24 5 18 2 -7 2 -21 0 -30z m1654 -53 l-9 -55
-1 50 c-1 56 11 115 17 80 1 -11 -1 -45 -7 -75z m239 80 c0 -5 -7 -7 -15 -4
-8 4 -15 8 -15 10 0 2 7 4 15 4 8 0 15 -4 15 -10z m-174 -56 c-6 -19 -12 -28
-14 -20 -3 13 14 56 22 56 2 0 -2 -16 -8 -36z m136 19 c47 -18 78 -40 78 -56
0 -6 -8 -3 -17 5 -10 8 -31 15 -46 16 -39 3 -91 33 -74 44 15 10 10 11 59 -9z
m158 7 c-8 -5 -19 -10 -25 -10 -5 0 -3 5 5 10 8 5 20 10 25 10 6 0 3 -5 -5
-10z m-1420 -24 c0 -20 -17 -29 -23 -14 -3 7 -6 -1 -6 -19 -1 -27 -6 -34 -36
-44 -19 -7 -35 -15 -35 -19 2 -15 39 -75 47 -73 7 2 6 -97 -2 -106 -2 -1 -16
1 -32 6 -34 12 -46 55 -25 96 18 38 10 56 -21 50 -18 -4 -23 -10 -20 -24 5
-16 0 -19 -36 -19 -22 0 -41 5 -41 10 0 6 7 10 15 10 11 0 14 7 10 23 -20 91
-7 117 63 118 26 0 56 4 67 9 33 14 75 12 75 -4z m1363 7 c-7 -2 -19 -2 -25 0
-7 3 -2 5 12 5 14 0 19 -2 13 -5z m-376 -45 c-3 -7 -5 -2 -5 12 0 14 2 19 5
13 2 -7 2 -19 0 -25z m90 -10 c-3 -7 -5 -2 -5 12 0 14 2 19 5 13 2 -7 2 -19 0
-25z m-551 -60 c-9 -12 -16 -17 -16 -11 0 7 5 15 10 18 6 3 11 23 12 43 1 37
1 37 5 5 3 -20 -2 -42 -11 -55z m511 50 c-3 -8 -6 -5 -6 6 -1 11 2 17 5 13 3
-3 4 -12 1 -19z m-1597 -28 c0 -5 -7 -7 -15 -4 -8 4 -15 8 -15 10 0 2 7 4 15
4 8 0 15 -4 15 -10z m-360 -10 c0 -5 -2 -10 -4 -10 -3 0 -8 5 -11 10 -3 6 -1
10 4 10 6 0 11 -4 11 -10z m117 -15 c19 -13 20 -19 11 -49 -11 -34 -12 -35
-38 -21 -27 14 -54 60 -45 76 9 14 48 11 72 -6z m232 -24 c-1 -17 -3 -20 -6
-8 -2 9 -9 17 -14 17 -5 0 -9 7 -9 15 0 9 6 12 15 9 9 -4 15 -17 14 -33z
m1218 2 c-3 -10 -5 -4 -5 12 0 17 2 24 5 18 2 -7 2 -21 0 -30z m-60 -15 c-3
-7 -5 -2 -5 12 0 14 2 19 5 13 2 -7 2 -19 0 -25z m-1797 12 c0 -5 -5 -10 -11
-10 -5 0 -7 5 -4 10 3 6 8 10 11 10 2 0 4 -4 4 -10z m916 -13 c16 -16 -12 -21
-119 -20 -145 2 -137 1 -137 17 0 12 23 14 124 12 69 -1 128 -5 132 -9z m274
3 c0 -5 -5 -10 -11 -10 -5 0 -7 5 -4 10 3 6 8 10 11 10 2 0 4 -4 4 -10z m1485
0 c3 -5 1 -10 -4 -10 -6 0 -11 5 -11 10 0 6 2 10 4 10 3 0 8 -4 11 -10z
m-1012 -29 c-3 -13 -10 -18 -21 -14 -10 4 -13 2 -8 -6 4 -6 4 -10 -1 -9 -15 4
-53 -23 -53 -38 0 -8 -4 -13 -9 -10 -5 3 -25 -21 -45 -54 -27 -46 -34 -68 -31
-93 3 -23 3 -26 -3 -9 -7 22 -7 22 -18 -5 -7 -16 -15 -37 -18 -47 -13 -37 -16
-8 -5 50 14 77 49 135 107 179 26 19 52 39 59 45 7 5 17 10 23 10 5 0 10 5 10
10 0 6 4 10 9 10 5 0 7 -9 4 -19z m988 -47 c11 -13 0 -76 -11 -69 -4 3 -11 -2
-14 -11 -3 -8 -10 -12 -16 -9 -13 8 -13 45 0 45 5 0 13 24 17 53 5 34 9 44 11
27 2 -14 8 -30 13 -36z m74 -49 c4 -32 3 -45 -3 -37 -11 17 -22 17 -32 2 -5
-8 -9 -7 -13 4 -4 10 -1 16 8 16 8 0 15 5 15 11 0 6 -6 9 -14 6 -10 -4 -15 4
-18 24 -5 30 12 55 27 41 4 -4 5 4 1 18 -5 20 -3 19 8 -5 8 -17 17 -53 21 -80z
m-530 65 c8 -13 -5 -13 -25 0 -13 8 -13 10 2 10 9 0 20 -4 23 -10z m-1004 -89
c-6 -10 -8 -28 -6 -40 2 -11 0 -21 -6 -21 -5 0 -9 10 -9 23 -1 20 -2 20 -11 4
-7 -12 -19 -16 -44 -13 -19 3 -39 7 -45 11 -5 3 -10 3 -10 -2 0 -10 -338 -10
-366 0 -15 5 -20 14 -17 27 4 17 8 18 27 8 29 -17 46 -18 46 -5 0 7 5 5 10 -3
8 -12 10 -12 10 -1 0 11 3 11 15 1 8 -7 15 -9 15 -4 0 10 86 8 183 -2 39 -4
66 -2 82 6 14 8 40 11 64 7 31 -4 41 -2 41 9 0 8 7 14 15 14 12 0 13 -4 6 -19z
m491 -23 c-6 -6 -7 0 -4 19 5 21 7 23 10 9 2 -10 0 -22 -6 -28z m692 -73 c-9
-36 -23 -31 -20 8 5 50 6 53 17 35 5 -10 7 -29 3 -43z m-1135 31 c15 -18 5
-43 -20 -49 -12 -3 -20 -13 -19 -24 5 -40 -2 -46 -15 -14 -19 43 -19 57 3 80
21 23 36 25 51 7z m1484 -11 c-3 -9 -8 -14 -10 -11 -3 3 -2 9 2 15 9 16 15 13
8 -4z m-494 -81 c-4 -12 -6 -24 -3 -27 2 -2 -7 -28 -21 -58 -14 -30 -25 -59
-25 -65 0 -15 22 -24 85 -34 28 -4 102 -17 165 -28 136 -24 223 -36 265 -37
105 -4 105 -4 105 -30 0 -15 -7 -28 -17 -32 -26 -10 -286 14 -389 36 -50 11
-100 17 -112 15 -11 -3 -23 -1 -26 5 -12 19 -28 12 -24 -11 2 -17 12 -24 38
-28 19 -4 46 -13 60 -22 14 -9 37 -18 53 -22 19 -5 27 -13 27 -29 0 -13 3 -17
8 -11 5 8 13 5 26 -7 12 -11 14 -19 7 -19 -7 0 -10 -4 -6 -10 3 -5 12 -7 20
-3 10 3 15 -2 15 -16 0 -12 3 -20 8 -20 19 3 34 -3 53 -22 23 -23 29 -24 120
-15 55 6 68 4 80 -10 11 -14 10 -22 -9 -56 -12 -22 -19 -44 -16 -49 2 -5 24
-6 47 -3 23 3 53 1 67 -5 24 -9 24 -10 3 -10 -14 -1 -23 -7 -23 -16 0 -8 -4
-15 -10 -15 -5 0 -10 -9 -10 -20 0 -11 -6 -20 -12 -20 -9 0 -8 -4 2 -10 12 -8
11 -10 -5 -10 -12 0 -26 -5 -31 -10 -7 -7 -19 -8 -36 -1 -27 10 -38 6 -38 -15
0 -8 6 -11 13 -8 7 2 26 -6 42 -18 16 -13 40 -28 54 -35 l26 -12 -30 5 c-27 5
-31 2 -41 -30 -9 -30 -8 -37 9 -51 14 -12 16 -20 9 -27 -8 -8 -16 -7 -27 2 -8
7 -18 10 -21 7 -9 -9 6 -27 22 -27 9 0 12 -5 8 -12 -4 -6 -3 -8 3 -5 5 3 16
-3 23 -14 8 -10 21 -19 28 -19 9 0 12 -6 8 -17 -6 -14 -3 -14 15 3 12 10 19
13 15 6 -5 -8 2 -15 17 -21 27 -10 45 -31 28 -31 -6 0 -11 4 -11 8 0 4 -9 8
-21 8 -19 0 -19 -1 -3 -13 16 -12 15 -13 -12 -11 -16 1 -34 6 -41 10 -7 6 -14
4 -19 -3 -4 -8 -3 -9 4 -5 7 4 12 2 12 -4 0 -6 12 -22 26 -35 15 -14 21 -25
15 -25 -22 0 -51 20 -51 35 0 8 -6 15 -13 15 -8 0 -22 9 -31 19 -10 11 -42 31
-72 45 -30 14 -54 31 -54 36 0 6 4 9 9 6 5 -4 1 12 -10 33 -10 22 -21 56 -23
77 -3 21 -11 41 -19 46 -8 4 -13 19 -12 33 3 20 -1 25 -20 25 -12 0 -25 7 -29
15 -3 8 -12 15 -20 15 -8 0 -16 5 -18 10 -2 6 -13 12 -25 14 -12 3 -32 10 -45
17 -13 8 -25 14 -28 14 -3 0 -27 8 -55 17 -64 22 -174 42 -182 35 -10 -10 -63
22 -63 39 0 8 7 17 16 21 22 8 64 52 73 76 10 26 -28 133 -68 194 -17 25 -31
51 -31 57 0 26 62 137 110 198 41 51 56 63 65 55 8 -8 10 -20 4 -33z m62 16
c25 -14 25 -34 -1 -27 -11 3 -18 1 -15 -3 3 -5 1 -11 -5 -15 -6 -4 -10 6 -10
24 0 34 2 36 31 21z m-885 -25 c-4 -14 -2 -25 4 -25 11 0 13 -33 4 -65 -4 -15
-19 -24 -56 -33 -28 -6 -54 -9 -59 -6 -5 3 -9 1 -9 -3 0 -5 -16 -10 -37 -11
-20 -2 -41 -5 -46 -9 -5 -3 -30 -7 -56 -10 -38 -3 -48 -1 -48 11 0 8 4 13 9
10 4 -3 8 6 8 20 0 14 -4 26 -10 26 -5 0 -10 5 -10 10 0 6 9 10 19 10 11 0 22
4 26 9 3 5 42 13 86 17 79 7 82 8 101 40 16 27 27 34 50 34 27 0 30 -2 24 -25z
m84 15 c0 -5 -5 -10 -11 -10 -5 0 -7 5 -4 10 3 6 8 10 11 10 2 0 4 -4 4 -10z
m-23 -137 c-3 -10 -5 -4 -5 12 0 17 2 24 5 18 2 -7 2 -21 0 -30z m2122 -28
c15 -15 14 -16 0 -10 -10 4 -20 1 -24 -5 -4 -6 -1 -9 7 -8 7 2 11 -4 9 -12 -2
-8 -5 -28 -7 -45 -2 -16 -9 -32 -15 -34 -7 -2 -7 -7 2 -13 10 -6 3 -8 -20 -6
-26 2 -35 -1 -37 -15 -1 -9 2 -15 7 -11 5 3 9 -1 9 -8 0 -10 2 -10 9 1 5 7 13
11 19 7 6 -3 13 -2 17 4 4 6 11 7 17 4 7 -5 8 -2 3 6 -6 10 1 12 33 7 23 -3
42 -2 42 2 0 5 12 8 28 7 15 -1 25 -3 23 -6 -2 -3 1 -15 8 -28 10 -18 15 -20
31 -12 20 11 21 10 24 -11 0 -7 10 -15 21 -19 16 -6 11 -9 -23 -15 -31 -5 -42
-11 -38 -21 4 -10 -3 -14 -25 -14 -17 0 -28 -3 -26 -8 3 -4 -36 -8 -86 -10
-129 -3 -160 -6 -174 -15 -7 -5 -18 -5 -23 -2 -6 3 -13 0 -16 -8 -6 -16 -60
-18 -83 -3 -8 5 -12 5 -9 0 3 -5 0 -15 -8 -22 -18 -17 -18 -16 10 56 14 34 21
60 17 58 -4 -3 -3 10 3 29 10 31 12 33 28 19 15 -15 17 -13 23 20 7 34 25 61
25 37 0 -6 5 -11 10 -11 6 0 10 9 10 20 0 11 5 20 10 20 6 0 19 -9 30 -20 23
-23 30 -25 30 -9 0 7 -8 18 -17 24 -17 12 -17 14 1 34 11 12 32 21 50 22 26 0
28 2 11 8 -11 5 -23 7 -27 5 -5 -3 -5 4 1 35 2 10 76 -10 90 -24z m-2170 -32
c0 -26 -6 -65 -15 -88 -14 -39 -18 -42 -49 -39 -39 3 -58 12 -50 24 3 5 0 12
-6 16 -7 4 -9 3 -5 -4 3 -6 2 -13 -3 -16 -14 -9 -7 18 13 49 29 44 83 95 112
105 0 0 2 -21 3 -47z m1472 19 c-16 -29 -14 -39 3 -17 13 18 15 17 25 -20 11
-42 5 -89 -11 -79 -5 3 -8 -3 -6 -13 2 -11 -1 -19 -7 -19 -5 1 -9 7 -7 14 2 6
-2 12 -8 12 -6 0 -9 -4 -6 -9 3 -4 -4 -17 -15 -27 l-21 -19 7 45 c9 61 15 80
24 80 5 0 6 11 3 25 -2 14 1 32 8 40 17 21 24 12 11 -13z m-1018 -85 c-8 -45
-41 -107 -56 -107 -24 0 -39 18 -48 59 -9 39 -7 45 22 81 l32 39 28 -20 c24
-17 27 -25 22 -52z m-400 -2 c5 -28 4 -34 -3 -20 -8 19 -14 73 -6 64 2 -2 6
-22 9 -44z m2195 9 c-14 -30 -68 -35 -68 -6 0 27 17 39 50 34 26 -4 28 -6 18
-28z m-490 -68 c-3 -16 -7 -12 -15 17 -7 21 -9 46 -5 55 8 21 25 -40 20 -72z
m689 56 c10 -17 8 -18 -13 -14 -24 4 -30 13 -17 25 10 11 17 8 30 -11z m-2430
-24 c-3 -7 -5 -2 -5 12 0 14 2 19 5 13 2 -7 2 -19 0 -25z m2373 22 c12 -8 9
-10 -12 -10 -16 0 -28 5 -28 10 0 13 20 13 40 0z m33 -47 c34 -17 35 -25 2
-17 -19 5 -25 2 -25 -10 0 -34 -32 -10 -43 32 -5 20 -2 22 16 16 12 -4 34 -13
50 -21z m-773 2 c-7 -8 -17 -15 -23 -15 -6 0 -2 7 9 15 25 19 30 19 14 0z
m676 -12 c-10 -10 -19 5 -10 18 6 11 8 11 12 0 2 -7 1 -15 -2 -18z m-2272 2
c-4 -8 -8 -15 -10 -15 -2 0 -4 7 -4 15 0 8 4 15 10 15 5 0 7 -7 4 -15z m1613
-2 c-9 -8 12 -33 28 -33 8 0 16 8 18 18 3 11 5 9 6 -8 1 -14 8 -47 16 -74 8
-27 15 -59 14 -70 0 -21 -1 -21 -9 -1 -8 19 -9 19 -9 -2 -1 -13 -6 -23 -12
-23 -5 0 -7 -4 -4 -10 13 -20 -5 -9 -35 23 -16 17 -33 41 -36 52 -4 11 -10 22
-15 25 -4 3 -10 18 -13 34 -4 21 1 34 21 52 22 21 48 36 30 17z m758 -23 c3
-5 1 -10 -4 -10 -6 0 -11 5 -11 10 0 6 2 10 4 10 3 0 8 -4 11 -10z m-3223 -44
c-36 -18 -52 -33 -52 -49 0 -5 6 -5 13 0 6 4 41 9 77 10 90 4 100 6 100 16 0
5 7 4 15 -3 9 -7 18 -10 22 -6 3 3 1 6 -6 6 -7 0 -9 5 -5 11 4 7 10 7 16 1 6
-6 17 -8 24 -5 17 6 18 -4 2 -21 -26 -25 -113 -69 -142 -73 -17 -1 -43 -8 -58
-14 -16 -6 -37 -9 -49 -6 -13 3 -19 1 -16 -6 6 -18 84 -20 117 -3 17 8 27 10
24 4 -5 -8 -1 -9 12 -4 10 5 33 13 49 18 17 6 35 15 40 21 7 7 3 7 -10 2 -49
-18 -60 -17 -30 4 17 11 35 21 42 21 6 0 20 10 30 23 23 28 69 58 77 50 4 -4
13 -8 22 -9 12 -2 13 1 4 11 -9 11 -6 13 12 11 13 -2 50 -7 83 -11 60 -7 111
-15 130 -19 6 -2 24 -6 40 -10 17 -4 67 -21 111 -38 73 -28 82 -34 92 -64 5
-18 7 -36 4 -39 -3 -3 -7 -11 -8 -18 -10 -47 -37 -96 -65 -117 -18 -14 -29
-18 -25 -10 4 9 2 8 -7 -2 -8 -10 -17 -15 -20 -11 -4 3 -7 -3 -7 -14 0 -23
-23 -46 -35 -35 -5 4 -6 3 -3 -3 7 -12 -17 -37 -26 -28 -3 4 -6 -5 -6 -20 0
-14 7 -33 16 -41 14 -15 14 -16 0 -16 -18 0 -67 -40 -61 -50 2 -3 -11 -11 -28
-18 -27 -10 -29 -9 -14 2 15 11 15 15 3 19 -8 3 -17 1 -19 -6 -3 -9 -7 -9 -17
0 -7 6 -19 9 -26 6 -8 -3 -14 0 -14 6 0 6 7 11 15 11 8 0 15 7 15 15 0 8 7 15
15 15 21 0 -2 48 -27 56 -10 3 -21 18 -25 35 -3 16 -9 27 -13 24 -12 -7 -49
25 -44 38 5 15 -72 11 -82 -4 -3 -5 3 -6 13 -3 17 5 17 5 1 -6 -10 -6 -34 -13
-54 -15 -19 -3 -44 -9 -53 -15 -10 -5 -22 -6 -26 -2 -5 4 -5 1 -1 -6 6 -9 2
-11 -16 -7 -19 5 -24 2 -25 -14 -1 -12 -1 -21 0 -21 1 0 17 4 34 9 20 6 35 6
38 0 4 -5 2 -9 -3 -9 -5 0 -19 -9 -32 -20 l-23 -20 23 0 c20 0 21 -2 9 -17
-10 -14 -8 -13 10 2 14 11 21 14 17 7 -6 -9 0 -11 24 -7 22 4 29 2 25 -6 -5
-8 -1 -7 15 1 18 10 24 9 31 -1 4 -7 5 -17 2 -23 -3 -5 -1 -6 5 -2 7 4 12 13
12 21 0 15 27 28 41 19 6 -3 1 -13 -9 -22 -10 -10 -17 -22 -15 -29 3 -7 -3
-10 -15 -6 -21 5 -44 -18 -24 -25 7 -2 12 -8 12 -14 0 -6 -7 -8 -15 -4 -8 3
-14 0 -12 -7 1 -7 -4 -11 -11 -9 -6 1 -11 -4 -10 -10 2 -8 -8 -13 -23 -14 -35
-1 -49 -11 -42 -29 3 -8 0 -15 -5 -15 -6 0 -18 -14 -26 -32 -19 -38 -19 -39
-3 -33 8 4 12 -6 12 -31 0 -28 -5 -39 -21 -46 -11 -5 -28 -23 -38 -39 l-18
-30 25 5 c24 4 24 4 10 -25 -8 -16 -19 -26 -25 -23 -7 4 -8 2 -4 -5 4 -6 0
-14 -10 -18 -10 -4 -19 -2 -22 5 -2 8 -11 7 -28 -5 -14 -8 -27 -13 -31 -9 -3
3 -11 2 -17 -3 -14 -11 -83 -18 -91 -9 -4 4 -13 4 -20 2 -29 -12 -22 16 14 57
41 48 63 95 40 86 -8 -2 -13 -9 -12 -16 4 -14 -43 -44 -59 -39 -7 3 -18 -2
-24 -10 -10 -14 -12 -13 -19 7 -4 14 -12 20 -21 17 -8 -3 -14 -2 -14 3 0 14
28 33 40 26 5 -3 10 -4 10 0 0 3 -10 10 -22 14 -23 9 -23 9 4 16 23 6 25 9 14
20 -7 7 -21 13 -32 12 -13 -1 -18 4 -16 15 2 10 -2 18 -8 18 -5 0 -10 -4 -10
-10 0 -5 -7 -10 -16 -10 -8 0 -13 4 -10 9 4 5 1 11 -6 13 -22 8 3 28 35 28 30
1 31 1 13 15 -11 8 -16 15 -11 15 5 0 1 6 -9 13 -14 10 -17 23 -14 45 2 18 1
32 -4 32 -5 0 -6 5 -3 10 3 5 0 10 -7 10 -7 0 3 13 22 30 l35 29 -45 2 c-25 1
-51 1 -57 0 -7 -1 -13 2 -13 7 0 4 6 14 13 21 10 11 10 13 0 7 -7 -4 -13 -5
-13 -2 0 9 109 58 135 60 25 3 98 46 78 46 -6 0 -15 -4 -18 -10 -3 -5 -17 -10
-31 -10 -13 0 -24 -3 -24 -7 0 -5 -15 -9 -33 -9 -17 -1 -77 -23 -132 -49 -88
-42 -172 -64 -159 -43 3 5 0 8 -5 8 -6 0 -11 5 -11 11 0 6 9 8 20 4 19 -6 26
7 21 37 0 4 18 26 42 49 l42 41 -36 -21 c-27 -16 -47 -20 -80 -17 -24 3 -50 5
-57 5 -18 1 -4 21 14 21 9 0 12 -5 8 -12 -4 -7 -3 -8 5 -4 6 4 9 11 7 15 -3 4
-1 13 4 21 7 12 12 12 22 2 9 -9 9 -12 0 -12 -7 0 -12 -5 -12 -12 0 -6 9 -3
20 7 24 21 26 37 5 29 -19 -8 -19 10 0 26 15 12 39 5 30 -10 -3 -4 4 -6 15 -3
31 8 35 23 6 23 -26 0 -48 21 -28 28 6 2 22 12 34 23 l23 19 -35 -14 c-19 -7
-41 -11 -48 -9 -7 3 -20 -1 -30 -9 -15 -12 -16 -11 -3 5 7 9 19 17 27 17 7 0
22 10 33 21 18 19 38 24 111 28 20 1 22 3 10 11 -11 7 -1 10 35 11 28 0 68 6
90 14 l40 13 -77 1 c-43 1 -78 5 -78 10 0 10 49 21 95 21 18 0 35 6 38 13 4
11 -5 12 -41 6 -26 -4 -58 -12 -73 -17 -14 -6 -38 -8 -53 -5 -20 4 -27 2 -22
-6 5 -8 -7 -11 -41 -10 l-48 2 40 7 c40 7 40 7 -15 9 l-55 2 50 14 c28 8 78
14 112 15 34 0 65 5 68 10 5 8 -21 14 -55 12 -3 0 -10 6 -17 13 -10 11 -4 15
30 20 23 4 46 13 52 21 6 8 21 11 38 7 22 -4 26 -8 15 -15 -9 -7 -3 -8 19 -4
30 5 32 4 21 -14 -18 -28 -1 -38 18 -11 l16 22 23 -21 c28 -26 44 -20 38 14
-6 28 7 33 82 38 54 4 62 -13 17 -36z m783 -23 c3 -38 1 -43 -18 -43 -30 0
-44 11 -55 40 -13 37 -6 47 34 46 35 -1 36 -2 39 -43z m562 5 c-3 -8 -6 -5 -6
6 -1 11 2 17 5 13 3 -3 4 -12 1 -19z m1833 11 c0 -6 -9 -13 -20 -16 -11 -3
-20 -10 -21 -17 0 -6 -4 -2 -8 9 -6 14 -4 22 8 27 25 10 41 9 41 -3z m335 -19
c-10 -11 -21 -17 -24 -14 -3 3 3 12 13 20 28 20 32 17 11 -6z m-3899 -3 c4 -4
-5 -7 -19 -7 -15 0 -27 4 -27 8 0 10 36 9 46 -1z m2731 7 c-3 -3 -12 -4 -19
-1 -8 3 -5 6 6 6 11 1 17 -2 13 -5z m1096 -21 c6 -11 -7 -44 -17 -45 -13 0
-28 30 -21 42 7 12 32 13 38 3z m-1118 -22 c-3 -6 -11 -8 -17 -5 -6 4 -5 9 3
15 16 10 23 4 14 -10z m1032 -13 c-3 -7 -5 -2 -5 12 0 14 2 19 5 13 2 -7 2
-19 0 -25z m-920 -14 c12 -16 23 -34 23 -40 0 -6 7 -17 15 -24 20 -17 21 -71
0 -64 -10 4 -13 0 -10 -16 4 -20 1 -22 -28 -16 -18 3 -38 14 -44 23 -10 13
-13 14 -13 2 0 -11 -2 -11 -9 -1 -7 12 -7 110 0 153 4 24 40 15 66 -17z m-185
-11 c-6 -10 -8 -30 -5 -44 3 -15 1 -29 -4 -32 -16 -10 -123 -24 -123 -17 0 4
27 27 60 51 33 24 63 53 67 64 3 11 8 15 10 8 2 -7 0 -20 -5 -30z m-2617 -34
c-29 -11 -113 -11 -120 0 -6 11 74 19 115 12 22 -4 23 -5 5 -12z m-121 -28 c9
-12 7 -13 -9 -7 -11 5 -26 9 -33 9 -8 0 -7 6 5 19 13 15 19 16 22 6 2 -7 9
-19 15 -27z m3122 20 c-3 -5 3 -11 14 -14 11 -3 18 -1 15 3 -3 4 3 6 14 3 10
-3 22 0 25 6 4 6 12 11 18 11 5 0 0 -11 -13 -24 -25 -26 -27 -41 -6 -41 6 0
11 -8 9 -18 -3 -19 8 -22 24 -8 12 12 64 2 64 -12 0 -6 7 -19 17 -29 9 -11 11
-18 5 -18 -7 0 -12 4 -12 9 0 5 -7 12 -16 15 -8 3 -12 2 -9 -4 3 -6 -2 -13
-11 -17 -10 -4 -19 -2 -22 5 -2 7 -10 12 -17 12 -8 0 -18 6 -22 13 -4 8 -16
17 -26 20 -10 4 -16 11 -13 16 3 5 -1 12 -10 15 -10 4 -13 2 -9 -7 4 -6 -2 -2
-13 10 -11 12 -22 19 -26 16 -3 -4 -6 0 -6 8 0 8 5 20 12 27 14 14 22 16 14 3z
m-3156 -38 c-18 -6 -81 -33 -95 -41 -5 -3 -4 2 4 11 7 9 22 17 32 17 10 0 21
5 24 10 3 6 16 10 28 9 14 0 17 -2 7 -6z m3066 -40 c-10 -10 -19 5 -10 18 6
11 8 11 12 0 2 -7 1 -15 -2 -18z m711 1 c-3 -3 -12 -4 -19 -1 -8 3 -5 6 6 6
11 1 17 -2 13 -5z m-967 -13 c0 -6 -8 -16 -19 -23 -10 -7 -19 -17 -20 -23 0
-5 -11 -9 -23 -9 -16 -1 -24 6 -26 22 -3 17 2 22 17 22 12 0 21 5 21 10 0 6
11 10 25 10 14 0 25 -4 25 -9z m-2790 -30 c0 -13 -69 -55 -77 -47 -4 3 -1 6 6
6 8 0 11 7 7 15 -3 9 0 15 9 15 8 0 15 5 15 10 0 6 9 10 20 10 11 0 20 -4 20
-9z m2920 -66 c1 -18 3 -17 25 8 13 15 26 27 28 27 2 0 3 -16 3 -35 -1 -21 -6
-35 -13 -35 -7 0 -13 -7 -13 -15 0 -8 -8 -15 -17 -15 -15 0 -16 -2 -3 -10 13
-8 12 -10 -2 -10 -10 0 -18 -4 -18 -10 0 -5 -7 -10 -15 -10 -8 0 -15 -6 -16
-12 0 -10 -2 -10 -6 -1 -7 18 -4 28 7 28 6 0 10 5 10 10 0 6 -4 10 -9 10 -13
0 -25 13 -27 30 -2 17 2 17 31 5 17 -7 17 -9 3 -9 -10 -1 -18 -5 -18 -10 0
-15 32 -6 42 12 7 14 4 17 -14 18 -13 0 -17 3 -10 6 14 6 16 43 2 43 -5 0 -10
5 -10 10 0 6 8 5 20 -2 11 -7 20 -22 20 -33z m-1623 -27 c-3 -7 -5 -2 -5 12 0
14 2 19 5 13 2 -7 2 -19 0 -25z m1530 0 c-3 -8 -6 -5 -6 6 -1 11 2 17 5 13 3
-3 4 -12 1 -19z m-1607 -23 c-7 -9 -15 -13 -19 -10 -3 3 1 10 9 15 21 14 24
12 10 -5z m1570 -27 c0 -5 -9 -3 -20 4 -11 7 -20 16 -20 20 0 5 9 3 20 -4 11
-7 20 -16 20 -20z m-1944 -16 c-9 -8 -26 10 -26 26 1 15 2 15 15 -2 8 -11 13
-21 11 -24z m69 18 c3 -5 -1 -10 -9 -10 -9 0 -16 5 -16 10 0 6 4 10 9 10 6 0
13 -4 16 -10z m-115 -10 c0 -5 -5 -10 -11 -10 -5 0 -7 5 -4 10 3 6 8 10 11 10
2 0 4 -4 4 -10z m1967 -22 c-3 -8 -6 -5 -6 6 -1 11 2 17 5 13 3 -3 4 -12 1
-19z m-1992 2 c3 -6 -4 -10 -17 -10 -18 0 -20 2 -8 10 19 12 18 12 25 0z
m2089 -20 c14 -30 14 -30 -15 -30 -33 0 -33 -1 -19 34 12 33 15 33 34 -4z
m-1900 -9 c-4 -3 -9 0 -11 7 -3 6 -10 9 -15 6 -7 -4 -8 -2 -4 5 6 9 11 9 22 0
8 -6 12 -15 8 -18z m1706 -15 c0 -2 -7 -6 -15 -10 -8 -3 -15 -1 -15 4 0 6 7
10 15 10 8 0 15 -2 15 -4z m-10 -66 c0 -5 -4 -10 -9 -10 -6 0 -13 5 -16 10 -3
6 1 10 9 10 9 0 16 -4 16 -10z m-1726 -15 c3 -9 0 -15 -9 -15 -9 0 -12 6 -9
15 4 8 7 15 9 15 2 0 5 -7 9 -15z m1786 -5 c10 -18 8 -20 -18 -18 -19 1 -28 8
-29 20 -2 25 33 23 47 -2z m-1880 -10 c0 -5 -4 -10 -10 -10 -5 0 -10 5 -10 10
0 6 5 10 10 10 6 0 10 -4 10 -10z m1936 -13 c4 -4 -2 -7 -14 -7 -12 0 -22 4
-22 9 0 10 26 9 36 -2z m-2056 -51 c-7 -7 -14 -6 -21 1 -9 9 -7 12 9 10 14 -1
18 -5 12 -11z m-72 -246 c-7 -10 -14 -17 -17 -15 -4 4 18 35 25 35 2 0 -1 -9
-8 -20z"/>
<path d="M4293 4756 c-29 -15 -33 -27 -33 -110 0 -79 5 -97 12 -41 4 35 27 67
42 58 6 -3 8 -3 4 2 -10 11 20 38 33 29 8 -5 9 -3 4 6 -6 10 -4 12 8 7 16 -6
45 19 34 30 -4 3 -2 12 3 18 8 10 -1 13 -39 12 -28 0 -58 -5 -68 -11z"/>
<path d="M4489 4651 c7 -5 10 -14 7 -20 -8 -12 6 -15 17 -4 9 8 -12 33 -27 33
-6 0 -5 -4 3 -9z"/>
<path d="M1748 4263 c6 -2 18 -2 25 0 6 3 1 5 -13 5 -14 0 -19 -2 -12 -5z"/>
<path d="M3703 4202 c4 -5 -1 -12 -11 -14 -10 -3 -19 -13 -19 -22 0 -14 3 -14
22 4 12 11 25 17 30 13 4 -5 6 -2 3 6 -2 8 -10 17 -18 19 -7 3 -10 0 -7 -6z"/>
<path d="M4855 3810 c-3 -5 -1 -10 4 -10 6 0 11 5 11 10 0 6 -2 10 -4 10 -3 0
-8 -4 -11 -10z"/>
<path d="M4192 3773 c9 -33 -35 -60 -68 -42 -13 7 -24 16 -24 21 0 16 -40 7
-50 -11 -14 -27 -13 -47 5 -86 24 -50 53 -75 84 -75 23 0 31 6 40 30 6 17 21
34 35 40 29 11 32 25 14 67 -6 15 -10 32 -9 36 1 4 -6 16 -16 25 -16 16 -16
16 -11 -5z"/>
<path d="M3530 3656 c0 -2 8 -10 18 -17 15 -13 16 -12 3 4 -13 16 -21 21 -21
13z"/>
<path d="M4227 3627 c-3 -8 -8 -55 -12 -105 -6 -71 -10 -89 -21 -85 -8 3 -14
12 -14 21 0 8 -3 13 -6 9 -5 -5 4 -39 29 -109 10 -29 32 -37 39 -15 6 16 2
287 -5 293 -2 3 -7 -1 -10 -9z"/>
<path d="M3568 3293 c7 -3 16 -2 19 1 4 3 -2 6 -13 5 -11 0 -14 -3 -6 -6z"/>
<path d="M3600 3262 c6 -13 14 -21 18 -18 3 4 -2 14 -12 24 -18 16 -18 16 -6
-6z"/>
<path d="M3426 3182 c-3 -5 1 -9 9 -9 8 0 12 4 9 9 -3 4 -7 8 -9 8 -2 0 -6 -4
-9 -8z"/>
<path d="M3470 3180 c-9 -6 -10 -10 -3 -10 6 0 15 5 18 10 8 12 4 12 -15 0z"/>
<path d="M1476 3672 c-2 -4 4 -8 15 -8 10 0 19 4 19 8 0 4 -6 8 -14 8 -8 0
-17 -4 -20 -8z"/>
<path d="M1505 3630 c3 -5 14 -10 23 -10 15 0 15 2 2 10 -20 13 -33 13 -25 0z"/>
<path d="M1556 3566 c6 -15 4 -17 -6 -11 -9 6 -11 4 -5 -4 5 -9 10 -10 18 -2
8 8 7 14 -2 24 -10 10 -11 8 -5 -7z"/>
<path d="M1660 3329 c0 -5 9 -9 20 -9 11 0 20 2 20 4 0 2 -9 6 -20 9 -11 3
-20 1 -20 -4z"/>
<path d="M3030 3274 c0 -10 -10 -29 -22 -42 -23 -25 -23 -25 -1 -11 26 16 46
56 33 64 -6 4 -10 -2 -10 -11z"/>
<path d="M1830 3060 c-10 -6 -8 -10 7 -19 19 -10 33 -6 33 10 0 12 -26 18 -40
9z"/>
<path d="M3317 3083 c-13 -13 -7 -20 31 -32 49 -15 138 -16 182 -3 31 10 25
11 -41 7 -73 -4 -148 8 -160 26 -3 5 -8 6 -12 2z"/>
<path d="M3179 2976 c6 -7 17 -31 25 -52 8 -21 15 -31 15 -22 1 23 -30 88 -42
88 -5 0 -4 -6 2 -14z"/>
<path d="M3130 2928 c19 -18 37 -32 39 -31 7 4 -45 58 -60 61 -7 2 2 -12 21
-30z"/>
<path d="M3507 2819 c7 -7 15 -10 18 -7 3 3 -2 9 -12 12 -14 6 -15 5 -6 -5z"/>
<path d="M3897 2813 c-10 -9 -9 -33 1 -33 4 0 8 9 8 20 0 23 0 22 -9 13z"/>
<path d="M4070 2790 c0 -5 5 -10 10 -10 6 0 10 5 10 10 0 6 -4 10 -10 10 -5 0
-10 -4 -10 -10z"/>
<path d="M4123 2773 c0 -18 22 -16 37 2 11 13 9 15 -12 13 -14 -1 -25 -8 -25
-15z"/>
<path d="M3000 2556 c0 -2 7 -9 15 -16 9 -7 15 -8 15 -2 0 5 -7 12 -15 16 -8
3 -15 4 -15 2z"/>
<path d="M2040 2840 c0 -5 5 -10 11 -10 5 0 7 5 4 10 -3 6 -8 10 -11 10 -2 0
-4 -4 -4 -10z"/>
<path d="M3517 2554 c2 -7 11 -10 19 -7 19 7 18 10 -5 16 -13 3 -18 1 -14 -9z"/>
<path d="M3701 2583 c0 -11 3 -13 6 -5 2 6 9 10 14 6 5 -3 9 0 9 5 0 6 -7 11
-15 11 -8 0 -15 -8 -14 -17z"/>
<path d="M3058 2303 c12 -2 30 -2 40 0 9 3 -1 5 -23 4 -22 0 -30 -2 -17 -4z"/>
<path d="M3088 2283 c7 -3 16 -2 19 1 4 3 -2 6 -13 5 -11 0 -14 -3 -6 -6z"/>
<path d="M195 2220 c-3 -5 -1 -10 4 -10 6 0 11 5 11 10 0 6 -2 10 -4 10 -3 0
-8 -4 -11 -10z"/>
<path d="M201 2184 c0 -11 3 -14 6 -6 3 7 2 16 -1 19 -3 4 -6 -2 -5 -13z"/>
<path d="M3358 2193 c7 -3 16 -2 19 1 4 3 -2 6 -13 5 -11 0 -14 -3 -6 -6z"/>
<path d="M3255 850 c-3 -6 1 -7 9 -4 11 4 16 0 16 -10 0 -9 2 -16 4 -16 2 0
13 -3 23 -6 15 -5 16 -4 3 6 -13 10 -11 11 7 7 19 -4 20 -2 10 14 -9 14 -14
16 -26 6 -12 -9 -13 -9 -7 1 5 8 1 12 -13 12 -11 0 -23 -4 -26 -10z"/>
<path d="M3387 799 c7 -7 15 -10 18 -7 3 3 -2 9 -12 12 -14 6 -15 5 -6 -5z"/>
<path d="M3415 770 c-3 -5 -1 -10 4 -10 6 0 11 5 11 10 0 6 -2 10 -4 10 -3 0
-8 -4 -11 -10z"/>
<path d="M3400 739 c0 -5 5 -7 10 -4 6 3 10 8 10 11 0 2 -4 4 -10 4 -5 0 -10
-5 -10 -11z"/>
<path d="M4298 1243 c7 -3 16 -2 19 1 4 3 -2 6 -13 5 -11 0 -14 -3 -6 -6z"/>
<path d="M4380 1240 c0 -5 5 -10 11 -10 5 0 7 5 4 10 -3 6 -8 10 -11 10 -2 0
-4 -4 -4 -10z"/>
<path d="M4428 1203 c7 -3 16 -2 19 1 4 3 -2 6 -13 5 -11 0 -14 -3 -6 -6z"/>
<path d="M4353 1174 c0 -7 10 -10 26 -7 36 6 37 10 3 15 -18 2 -29 0 -29 -8z"/>
<path d="M1240 1170 c-13 -8 -13 -10 2 -10 9 0 20 5 23 10 8 13 -5 13 -25 0z"/>
<path d="M1628 1143 c-11 -25 -157 -146 -231 -191 -47 -29 -89 -57 -92 -61 -5
-10 61 11 71 22 4 4 14 7 23 6 12 0 11 -3 -4 -9 -11 -5 -15 -9 -9 -9 7 -1 25
6 40 14 16 8 46 15 66 15 20 0 39 4 42 9 4 5 14 8 24 6 9 -2 19 -4 21 -4 3 -1
-4 -8 -15 -16 -18 -14 -18 -14 -1 -15 11 0 21 9 24 20 3 11 15 21 27 22 11 0
26 2 31 3 6 2 18 3 28 4 9 0 17 7 17 15 0 8 13 17 29 21 16 3 32 13 35 20 6
18 -2 23 -31 20 -13 -1 -23 2 -23 7 0 5 -5 6 -10 3 -7 -5 -8 -11 -1 -19 7 -8
3 -11 -15 -11 -13 1 -27 5 -31 10 -5 4 -3 5 3 2 6 -4 22 5 34 18 l23 25 -41 0
c-45 0 -52 9 -25 31 11 10 14 10 9 2 -4 -7 -3 -13 2 -13 6 0 12 7 16 15 3 8 1
15 -4 15 -6 0 -10 7 -10 15 0 15 -16 21 -22 8z m28 -90 c-4 -5 -13 -8 -19 -8
-7 0 -11 -8 -9 -18 2 -9 -1 -17 -7 -17 -5 0 -8 8 -6 18 2 9 4 20 4 25 1 4 11
7 23 7 12 0 18 -3 14 -7z m-75 -77 c17 1 27 -1 23 -6 -12 -10 -84 -20 -84 -11
0 12 24 33 28 23 1 -4 16 -7 33 -6z m-131 -20 c0 -2 -8 -10 -17 -17 -16 -13
-17 -12 -4 4 13 16 21 21 21 13z"/>
<path d="M1306 1111 c-4 -5 3 -7 14 -4 23 6 26 13 6 13 -8 0 -17 -4 -20 -9z"/>
<path d="M1225 1090 c-14 -6 -6 -8 30 -8 35 1 44 3 30 9 -25 10 -35 10 -60 -1z"/>
<path d="M1150 1020 c8 -5 24 -10 34 -10 26 0 18 6 -19 14 -22 5 -26 4 -15 -4z"/>
<path d="M1058 983 c7 -3 16 -2 19 1 4 3 -2 6 -13 5 -11 0 -14 -3 -6 -6z"/>
<path d="M1268 957 c15 -7 26 -7 33 0 6 6 -1 10 -23 10 -30 0 -30 -1 -10 -10z"/>
<path d="M978 953 c7 -3 16 -2 19 1 4 3 -2 6 -13 5 -11 0 -14 -3 -6 -6z"/>
<path d="M1181 920 c-13 -11 -28 -20 -34 -20 -6 0 -2 7 9 16 21 17 7 10 -49
-25 -21 -13 -36 -25 -35 -27 9 -9 110 35 124 54 19 27 16 27 -15 2z"/>
<path d="M1615 930 c-3 -5 -1 -10 4 -10 6 0 11 5 11 10 0 6 -2 10 -4 10 -3 0
-8 -4 -11 -10z"/>
<path d="M1034 902 c3 -6 -2 -15 -11 -21 -10 -6 -13 -11 -7 -11 20 0 37 27 23
36 -7 4 -9 3 -5 -4z"/>
<path d="M1695 890 c3 -5 11 -10 16 -10 6 0 7 5 4 10 -3 6 -11 10 -16 10 -6 0
-7 -4 -4 -10z"/>
<path d="M1015 850 c-3 -6 1 -13 9 -16 9 -3 16 -14 17 -23 0 -10 4 -7 10 8 7
18 6 27 -3 33 -17 10 -26 10 -33 -2z"/>
<path d="M1328 853 c7 -3 16 -2 19 1 4 3 -2 6 -13 5 -11 0 -14 -3 -6 -6z"/>
<path d="M1390 800 c-9 -6 -10 -10 -3 -10 6 0 15 5 18 10 8 12 4 12 -15 0z"/>
<path d="M1780 670 c0 -5 5 -10 11 -10 5 0 7 5 4 10 -3 6 -8 10 -11 10 -2 0
-4 -4 -4 -10z"/>
<path d="M3699 993 c-13 -17 -13 -17 6 -3 11 8 22 16 24 17 2 2 0 3 -6 3 -6 0
-17 -8 -24 -17z"/>
<path d="M4050 929 c0 -5 5 -7 10 -4 6 3 10 8 10 11 0 2 -4 4 -10 4 -5 0 -10
-5 -10 -11z"/>
<path d="M1077 4938 c3 -13 11 -36 19 -53 8 -16 22 -55 32 -85 15 -48 21 -55
45 -58 16 -2 34 2 42 8 19 16 27 74 20 146 l-7 64 -78 0 c-76 0 -78 -1 -73
-22z"/>
<path d="M1442 4918 c0 -25 -5 -55 -11 -66 -19 -36 -7 -136 12 -105 12 19 19
181 9 199 -8 15 -10 9 -10 -28z"/>
<path d="M3405 4950 c11 -5 37 -11 58 -15 40 -6 53 -25 63 -90 12 -74 28 -135
36 -135 5 0 7 -4 4 -9 -3 -5 5 -11 18 -13 18 -4 50 13 123 63 104 73 182 116
276 154 31 13 64 31 73 39 14 15 6 16 -88 15 -57 -1 -91 -4 -75 -6 15 -2 27
-11 27 -18 0 -8 -12 -22 -27 -32 -16 -10 -31 -22 -35 -28 -4 -5 -8 -7 -8 -3 0
3 -19 0 -42 -7 -61 -18 -107 -9 -114 22 -7 27 19 53 66 64 14 4 -65 7 -175 7
-121 0 -192 -3 -180 -8z"/>
<path d="M2800 4926 c0 -2 6 -9 14 -15 10 -9 15 -8 20 4 4 10 -1 15 -14 15
-11 0 -20 -2 -20 -4z"/>
<path d="M2770 4775 c0 -11 4 -26 9 -33 7 -11 9 -11 14 1 3 8 -1 23 -8 34 -14
17 -14 17 -15 -2z"/>
<path d="M2808 4773 c6 -2 9 -10 6 -15 -4 -7 -2 -8 5 -4 13 9 5 26 -12 25 -9
0 -8 -2 1 -6z"/>
<path d="M3920 4740 c0 -5 5 -10 10 -10 6 0 10 5 10 10 0 6 -4 10 -10 10 -5 0
-10 -4 -10 -10z"/>
<path d="M1707 4715 c3 -8 9 -12 14 -9 12 7 11 11 -5 17 -10 4 -13 1 -9 -8z"/>
<path d="M2770 4710 c0 -5 5 -10 11 -10 5 0 7 5 4 10 -3 6 -8 10 -11 10 -2 0
-4 -4 -4 -10z"/>
<path d="M2685 4662 c-13 -9 -17 -32 -6 -32 9 0 24 30 18 36 -1 2 -7 0 -12 -4z"/>
<path d="M2710 4640 c0 -5 5 -10 11 -10 5 0 7 5 4 10 -3 6 -8 10 -11 10 -2 0
-4 -4 -4 -10z"/>
<path d="M2920 4622 c0 -7 -4 -10 -10 -7 -5 3 -10 1 -10 -4 0 -6 4 -11 9 -11
7 0 24 -67 35 -145 3 -16 3 9 1 58 -2 48 -9 95 -14 105 -7 10 -11 12 -11 4z"/>
<path d="M1188 4602 c-23 -5 -23 -5 8 -58 32 -55 42 -61 53 -33 6 17 2 32 -16
58 -28 42 -24 38 -45 33z"/>
<path d="M490 4500 c0 -5 5 -10 10 -10 6 0 10 5 10 10 0 6 -4 10 -10 10 -5 0
-10 -4 -10 -10z"/>
<path d="M370 4458 c0 -6 3 -8 7 -5 3 4 12 2 19 -4 8 -7 14 -7 19 1 3 5 5 10
3 11 -32 8 -48 7 -48 -3z"/>
<path d="M2893 4455 c0 -8 4 -12 9 -9 4 3 8 9 8 15 0 5 -4 9 -8 9 -5 0 -9 -7
-9 -15z"/>
<path d="M920 4070 c0 -5 5 -10 11 -10 5 0 7 5 4 10 -3 6 -8 10 -11 10 -2 0
-4 -4 -4 -10z"/>
<path d="M816 3515 c20 -30 24 -31 17 -6 -3 11 -11 22 -19 25 -11 4 -11 0 2
-19z"/>
<path d="M605 3500 c-10 -16 9 -33 30 -28 16 3 15 5 -3 21 -14 13 -22 15 -27
7z"/>
<path d="M4833 1465 c0 -8 4 -12 9 -9 4 3 8 9 8 15 0 5 -4 9 -8 9 -5 0 -9 -7
-9 -15z"/>
<path d="M4780 1379 c0 -5 7 -9 15 -9 9 0 32 -7 53 -15 29 -13 34 -18 22 -26
-11 -7 -6 -9 20 -8 19 1 43 -2 53 -6 13 -6 17 -2 17 17 0 25 -12 30 -72 30
-16 0 -28 5 -28 10 0 5 -4 7 -9 4 -4 -3 -22 -1 -40 4 -19 5 -31 5 -31 -1z"/>
<path d="M4910 1300 c8 -5 24 -10 34 -10 26 0 18 6 -19 14 -22 5 -26 4 -15 -4z"/>
<path d="M4920 1275 c0 -2 10 -10 23 -16 20 -11 21 -11 8 4 -13 16 -31 23 -31
12z"/>
</g>
</svg>
